<?xml version="1.0" encoding="utf-8"?>
<!-- Generator: Adobe Illustrator 16.0.0, SVG Export Plug-In . SVG Version: 6.00 Build 0)  -->
<!DOCTYPE svg PUBLIC "-//W3C//DTD SVG 1.1//EN" "http://www.w3.org/Graphics/SVG/1.1/DTD/svg11.dtd">
<svg version="1.1" id="Layer_1_xA0_Image_1_" xmlns="http://www.w3.org/2000/svg" xmlns:xlink="http://www.w3.org/1999/xlink"
	 x="0px" y="0px" width="120px" height="100px" viewBox="0 0 120 100" enable-background="new 0 0 120 100" xml:space="preserve">
<g>
	<g>
		<path fill="#FFFFFF" d="M7.33,93.439c0-28.704,0-57.408,0-86.136c35.243,0,70.496,0,105.79,0c0,28.696,0,57.416,0,86.136
			C77.878,93.439,42.609,93.439,7.33,93.439z M34.621,88.661c9.878,0.229,18.017-7.814,17.952-17.873
			c-0.062-9.783-7.074-17.802-17.85-17.938c-9.854-0.124-18.245,7.377-18.012,18.587C16.91,80.995,25.002,88.908,34.621,88.661z
			 M64.964,61.566c0.866,0,1.588,0,2.373,0c-1.857,5.877-3.662,11.619-5.488,17.354c-0.671,2.104-0.694,2.096-2.865,2.275
			c-0.104,0.009-0.202,0.101-0.271,0.137c0,1.861,0,3.683,0,5.538c3.377,0,6.671,0,9.965,0c0-1.772,0-3.461,0-5.139
			c-0.76-0.042-1.409-0.078-2.125-0.117c0.329-1.271,0.612-2.368,0.912-3.531c2.23,0,4.426-0.015,6.62,0.022
			c0.241,0.004,0.625,0.261,0.692,0.478c0.307,0.986,0.522,2,0.81,3.158c-0.868,0-1.528,0-2.187,0c0,1.777,0,3.438,0,5.133
			c0.216,0.03,0.368,0.071,0.521,0.071c6.958,0.003,13.917,0.025,20.875-0.023c0.93-0.007,1.917-0.234,2.774-0.601
			c3.293-1.41,4.251-4.332,4.518-7.548c0.277-3.339-0.618-6.307-3.416-8.552c2.228-2.1,2.76-4.725,2.455-7.501
			c-0.463-4.225-2.409-7.02-7.012-6.955c-3.079,0.044-6.159,0.004-9.238,0.009c-0.421,0-0.842,0.038-1.392,0.065
			c0,1.233,0,2.345,0,3.455c0,2.341,0,2.341,2.228,2.604c0.073,0.009,0.14,0.069,0.254,0.129c0,6.27,0,12.562,0,18.848
			c-1.254,0.104-2.435,0.191-3.612,0.303c-0.822,0.077-1.269-0.116-1.454-1.078c-0.26-1.354-0.795-2.653-1.211-3.978
			c-1.116-3.551-2.246-7.099-3.346-10.656c-0.916-2.965-1.777-5.948-2.724-8.903c-0.106-0.333-0.601-0.763-0.924-0.771
			c-2.317-0.058-4.638-0.039-6.956,0.02c-0.264,0.007-0.733,0.399-0.742,0.627C64.935,58.104,64.964,59.771,64.964,61.566z
			 M33.567,42.295c0,2.008,0,3.859,0,5.708c5.041,0,9.982,0,14.956,0c0-1.924,0-3.775,0-5.699c-0.565,0-1.043-0.029-1.516,0.006
			c-1.043,0.079-1.873-0.177-2.697-0.944c-2.203-2.049-4.53-3.964-6.801-5.939c-1.226-1.066-2.437-2.147-3.722-3.281
			c2.848-2.404,5.685-4.671,8.365-7.111c1.592-1.45,3.17-2.602,5.45-2.208c0.056,0.009,0.128-0.076,0.209-0.128
			c0-1.849,0-3.704,0-5.581c-4.789,0-9.493,0-14.269,0c0,1.922,0,3.78,0,5.672c0.568,0.052,1.086,0.1,1.805,0.167
			c-2.748,2.391-5.313,4.623-8.021,6.979c0-2.51,0-4.754,0-7.118c1.199,0,2.301,0,3.433,0c0-1.976,0-3.827,0-5.721
			c-4.808,0-9.506,0-14.239,0c0,1.964,0,3.817,0,5.761c0.752,0,1.434,0.066,2.097-0.015c1.141-0.14,1.411,0.341,1.398,1.419
			c-0.055,4.317-0.023,8.636-0.023,12.955c0,1.664,0,3.327,0,5.116c-1.266,0-2.365,0-3.456,0c0,1.981,0,3.832,0,5.657
			c4.801,0,9.501,0,14.241,0c0-1.905,0-3.726,0-5.7c-1.193,0-2.329,0-3.455,0c0-2.596,0-5.039,0-7.654
			c2.916,2.569,5.69,5.013,8.692,7.658C34.998,42.295,34.328,42.295,33.567,42.295z M76.468,48.021c2.047,0,3.952,0,5.894,0
			c0.045-0.368,0.086-0.696,0.13-1.058c4.404,2.832,10.838,2.424,14.622-1.899c2.529-2.89,2.963-7.641,0.859-10.854
			c-1.562-2.387-4.037-3.235-6.511-4.112c-2.124-0.753-4.299-1.372-6.394-2.196c-1.476-0.581-1.942-1.849-1.558-3.31
			c0.421-1.597,2.119-2.534,4.163-2.43c2.087,0.107,3.331,1.198,3.671,3.09c0.059,0.324,0.328,0.865,0.514,0.871
			c2.022,0.063,4.047,0.04,6.11,0.04c0-3.117,0-6.055,0-9.103c-1.75,0-3.42-0.031-5.086,0.029c-0.294,0.011-0.573,0.401-0.95,0.685
			c-2.986-1.895-6.317-1.848-9.668-0.607c-4.979,1.843-7.381,7.207-5.318,11.798c1.245,2.771,3.645,4.221,6.367,5.212
			c2.419,0.881,4.877,1.658,7.281,2.575c1.387,0.529,1.848,1.663,1.474,3.096c-0.614,2.353-3.387,3.501-6.148,2.569
			c-2.074-0.701-2.761-2.313-2.841-4.319c-2.23,0-4.399,0-6.611,0C76.468,41.424,76.468,44.653,76.468,48.021z M49.576,42.258
			c0,1.721,0.042,3.234-0.017,4.743c-0.033,0.839,0.243,1.115,1.085,1.106c4.117-0.042,8.234-0.032,12.352-0.047
			c0.303-0.001,0.604-0.058,0.896-0.087c0-1.917,0-3.739,0-5.712c-1.206,0-2.337,0-3.458,0c0-2.453,0-4.752,0-7.182
			c3.282,0,6.494,0,9.675,0c0-1.83,0-3.526,0-5.367c-3.27,0-6.44,0-9.644,0c0-2.253,0-4.357,0-6.495c2.543,0,5.028,0,7.587,0
			c0,0.618,0,1.135,0,1.651c-0.001,2.271-0.001,2.271,2.292,2.27c1.611-0.001,3.223,0,4.875,0c0-3.526,0-6.738,0-9.985
			c-8.606,0-17.087,0-25.645,0c0,1.724,0.017,3.318-0.008,4.913c-0.01,0.654,0.308,0.823,0.887,0.808
			c0.867-0.022,1.735-0.006,2.66-0.006c0,6.515,0,12.89,0,19.39C51.965,42.258,50.861,42.258,49.576,42.258z"/>
		<path fill-rule="evenodd" clip-rule="evenodd" d="M34.621,88.661c-9.619,0.247-17.711-7.666-17.91-17.224
			c-0.233-11.21,8.158-18.711,18.012-18.587c10.776,0.136,17.788,8.154,17.85,17.938C52.638,80.847,44.499,88.891,34.621,88.661z
			 M48.932,79.848c-9.612,0-18.969,0-28.559,0c3.46,4.971,8,7.614,13.862,7.741C40.441,87.724,45.273,85.09,48.932,79.848z
			 M28.86,65.167c0,4.445,0,8.773,0,13.097c3.97,0,7.856,0,11.708,0c0-4.422,0-8.746,0-13.097
			C36.641,65.167,32.814,65.167,28.86,65.167z M33.531,53.998c-6.05,0.655-10.557,3.336-13.464,8.374
			C17.17,67.389,17.111,72.625,19.45,78.2C24.194,70.046,28.795,62.138,33.531,53.998z M35.773,54.002
			c4.787,8.125,9.414,15.979,14.155,24.027c2.293-5.564,2.166-10.802-0.781-15.807C46.236,57.279,41.778,54.656,35.773,54.002z
			 M28.894,64.036c3.941,0,7.698,0,11.594,0c-1.978-3.347-3.874-6.556-5.846-9.894C32.674,57.528,30.815,60.728,28.894,64.036z
			 M49.126,78.709c-2.448-4.153-4.816-8.172-7.184-12.189c-0.062,0.03-0.123,0.061-0.185,0.092c0,4.011,0,8.021,0,12.098
			C44.172,78.709,46.519,78.709,49.126,78.709z M27.657,78.741c0-4.169,0-8.225,0-12.593c-2.52,4.342-4.876,8.4-7.309,12.593
			C22.944,78.741,25.25,78.741,27.657,78.741z"/>
		<path fill-rule="evenodd" clip-rule="evenodd" d="M64.964,61.566c0-1.795-0.029-3.463,0.034-5.128
			c0.009-0.228,0.479-0.62,0.742-0.627c2.318-0.059,4.639-0.077,6.956-0.02c0.323,0.008,0.817,0.438,0.924,0.771
			c0.946,2.955,1.808,5.938,2.724,8.903c1.1,3.558,2.229,7.105,3.346,10.656c0.416,1.324,0.951,2.624,1.211,3.978
			c0.186,0.962,0.632,1.155,1.454,1.078c1.178-0.111,2.358-0.199,3.612-0.303c0-6.286,0-12.578,0-18.848
			c-0.114-0.06-0.181-0.12-0.254-0.129c-2.228-0.263-2.228-0.263-2.228-2.604c0-1.11,0-2.222,0-3.455
			c0.55-0.027,0.971-0.065,1.392-0.065c3.079-0.005,6.159,0.035,9.238-0.009c4.603-0.064,6.549,2.73,7.012,6.955
			c0.305,2.776-0.228,5.401-2.455,7.501c2.798,2.245,3.693,5.213,3.416,8.552c-0.267,3.216-1.225,6.138-4.518,7.548
			c-0.857,0.366-1.845,0.594-2.774,0.601c-6.958,0.049-13.917,0.026-20.875,0.023c-0.152,0-0.305-0.041-0.521-0.071
			c0-1.695,0-3.355,0-5.133c0.658,0,1.318,0,2.187,0c-0.287-1.158-0.503-2.172-0.81-3.158c-0.067-0.217-0.451-0.474-0.692-0.478
			c-2.194-0.037-4.39-0.022-6.62-0.022c-0.3,1.163-0.583,2.26-0.912,3.531c0.716,0.039,1.365,0.075,2.125,0.117
			c0,1.678,0,3.366,0,5.139c-3.294,0-6.588,0-9.965,0c0-1.855,0-3.677,0-5.538c0.069-0.036,0.167-0.128,0.271-0.137
			c2.171-0.18,2.194-0.171,2.865-2.275c1.826-5.734,3.631-11.477,5.488-17.354C66.552,61.566,65.83,61.566,64.964,61.566z
			 M84.523,85.926c3.699,0,7.257,0.085,10.808-0.03c2.366-0.076,4.004-1.436,4.949-3.593c2.022-4.614,0.904-8.814-3.252-12.084
			c2.824-1.711,3.45-4.417,3.137-7.388c-0.478-4.537-2.5-6.261-6.399-6.092c-1.835,0.08-3.676,0.014-5.515,0.014
			c-1.224,0-2.446,0-3.72,0c0,1.455,0,2.751,0,4.13c0.807,0.043,1.549,0.082,2.354,0.125c0,6.928,0,13.784,0,20.754
			c-0.791,0.044-1.562,0.087-2.361,0.131C84.523,83.28,84.523,84.543,84.523,85.926z M82.702,82.043
			c-1.319,0.067-2.258,0.128-2.735-1.544c-2.206-7.713-4.631-15.362-7.008-23.024c-0.09-0.289-0.487-0.68-0.75-0.688
			c-2.028-0.057-4.06-0.031-6.17-0.031c0,1.327,0,2.543,0,3.838c0.856,0.043,1.66,0.084,2.543,0.128
			c-2.019,6.413-4.029,12.641-5.914,18.906c-0.474,1.572-0.91,2.843-2.904,2.475c-0.024-0.004-0.058,0.049-0.143,0.123
			c0,1.167,0,2.383,0,3.649c2.77,0,5.462,0,8.173,0c0-1.104,0-2.123,0-3.289c-0.844,0-1.61,0-2.499,0
			c0.451-1.67,0.817-3.182,1.292-4.658c0.093-0.288,0.598-0.624,0.919-0.632c2.358-0.054,4.719-0.053,7.076-0.001
			c0.325,0.008,0.837,0.33,0.931,0.616c0.494,1.51,0.883,3.055,1.328,4.659c-0.904,0.046-1.719,0.087-2.487,0.126
			c0,1.148,0,2.165,0,3.176c2.832,0,5.569,0,8.349,0C82.702,84.597,82.702,83.41,82.702,82.043z"/>
		<path fill-rule="evenodd" clip-rule="evenodd" d="M33.567,42.295c0.761,0,1.431,0,2.448,0c-3.002-2.645-5.776-5.089-8.692-7.658
			c0,2.615,0,5.058,0,7.654c1.126,0,2.262,0,3.455,0c0,1.974,0,3.795,0,5.7c-4.739,0-9.439,0-14.241,0c0-1.825,0-3.676,0-5.657
			c1.09,0,2.19,0,3.456,0c0-1.789,0-3.453,0-5.116c0-4.318-0.032-8.637,0.023-12.955c0.013-1.079-0.257-1.56-1.398-1.419
			c-0.663,0.081-1.345,0.015-2.097,0.015c0-1.944,0-3.797,0-5.761c4.732,0,9.431,0,14.239,0c0,1.894,0,3.746,0,5.721
			c-1.132,0-2.233,0-3.433,0c0,2.364,0,4.608,0,7.118c2.708-2.356,5.273-4.588,8.021-6.979c-0.719-0.066-1.237-0.114-1.805-0.167
			c0-1.892,0-3.75,0-5.672c4.776,0,9.479,0,14.269,0c0,1.876,0,3.732,0,5.581c-0.081,0.052-0.153,0.137-0.209,0.128
			c-2.28-0.395-3.858,0.757-5.45,2.208c-2.68,2.44-5.517,4.707-8.365,7.111c1.285,1.133,2.497,2.215,3.722,3.281
			c2.271,1.976,4.599,3.89,6.801,5.939c0.824,0.767,1.653,1.022,2.697,0.944c0.473-0.036,0.95-0.006,1.516-0.006
			c0,1.923,0,3.775,0,5.699c-4.974,0-9.916,0-14.956,0C33.567,46.154,33.567,44.303,33.567,42.295z M20.819,21.876
			c0,7.204,0,14.222,0,21.377c-1.178,0-2.276,0-3.37,0c0,1.351,0,2.562,0,3.756c4.189,0,8.282,0,12.37,0c0-1.287,0-2.473,0-3.804
			c-1.192,0-2.328,0-3.457,0c0-3.588,0-7.028,0-10.656c4.054,3.565,7.962,7.002,12.144,10.678c-1.569,0-2.781,0-4.031,0
			c0,1.35,0,2.561,0,3.812c4.419,0,8.757,0,13.146,0c0-1.283,0-2.496,0-3.958c-2.206,0.779-3.495-0.563-4.872-1.821
			c-1.888-1.725-3.854-3.364-5.782-5.046c-1.528-1.333-3.048-2.675-4.633-4.067c3.388-2.871,6.713-5.622,9.953-8.47
			c1.298-1.141,2.55-2.156,4.414-1.836c0.053,0.009,0.124-0.089,0.166-0.121c0-1.236,0-2.454,0-3.635c-4.196,0-8.293,0-12.369,0
			c0,1.311,0,2.522,0,3.871c1.145,0,2.188,0,3.472,0C34,25.4,30.243,28.659,26.353,32.033c0-3.499,0-6.781,0-10.167
			c1.187,0,2.292,0,3.46,0c0-1.319,0-2.534,0-3.801c-4.153,0-8.246,0-12.375,0c0,1.291,0,2.503,0,3.811
			C18.588,21.876,19.657,21.876,20.819,21.876z"/>
		<path fill-rule="evenodd" clip-rule="evenodd" d="M76.468,48.021c0-3.368,0-6.598,0-9.925c2.212,0,4.381,0,6.611,0
			c0.08,2.005,0.767,3.618,2.841,4.319c2.762,0.932,5.534-0.216,6.148-2.569c0.374-1.433-0.087-2.567-1.474-3.096
			c-2.404-0.917-4.862-1.694-7.281-2.575c-2.723-0.991-5.122-2.441-6.367-5.212c-2.062-4.591,0.34-9.955,5.318-11.798
			c3.351-1.241,6.682-1.288,9.668,0.607c0.377-0.283,0.656-0.674,0.95-0.685c1.666-0.06,3.336-0.029,5.086-0.029
			c0,3.047,0,5.986,0,9.103c-2.063,0-4.088,0.023-6.11-0.04c-0.186-0.005-0.455-0.547-0.514-0.871
			c-0.34-1.892-1.584-2.983-3.671-3.09c-2.044-0.104-3.742,0.833-4.163,2.43c-0.385,1.46,0.082,2.729,1.558,3.31
			c2.095,0.824,4.27,1.442,6.394,2.196c2.474,0.877,4.948,1.726,6.511,4.112c2.104,3.214,1.67,7.964-0.859,10.854
			c-3.784,4.324-10.218,4.731-14.622,1.899c-0.044,0.362-0.085,0.69-0.13,1.058C80.42,48.021,78.515,48.021,76.468,48.021z
			 M81.436,44.833c1.235,0.827,2.27,1.733,3.468,2.27c1.944,0.87,4.048,0.822,6.131,0.486c4.767-0.77,8.11-5.5,7.213-10.221
			c-0.598-3.146-2.744-4.835-5.589-5.831c-2.672-0.936-5.424-1.685-8.009-2.818c-2.853-1.25-3.012-4.789-0.46-6.599
			c2.839-2.014,6.807-0.799,7.968,2.438c0.076,0.213,0.171,0.419,0.231,0.565c1.605,0,3.109,0,4.633,0c0-2.388,0-4.692,0-7.039
			c-1.309,0-2.556,0-3.82,0c-0.045,0.753-0.083,1.411-0.139,2.341c-2.519-3.376-5.763-3.637-9.215-2.774
			c-3.193,0.798-5.537,2.72-6.412,5.999c-1.049,3.93,0.874,7.421,5.054,9.127c2.545,1.039,5.199,1.807,7.79,2.738
			c2.024,0.727,2.888,1.877,2.86,3.665c-0.028,1.875-1.275,3.523-3.114,4.118c-3.823,1.237-6.548-0.237-7.89-4.295
			c-1.531,0-3.072,0-4.651,0c0,2.715,0,5.364,0,8.037c1.345,0,2.604,0,3.951,0C81.436,46.271,81.436,45.564,81.436,44.833z"/>
		<path fill-rule="evenodd" clip-rule="evenodd" d="M49.576,42.258c1.286,0,2.39,0,3.536,0c0-6.5,0-12.875,0-19.39
			c-0.925,0-1.793-0.016-2.66,0.006c-0.579,0.015-0.897-0.154-0.887-0.808c0.025-1.594,0.008-3.189,0.008-4.913
			c8.558,0,17.039,0,25.645,0c0,3.247,0,6.459,0,9.985c-1.652,0-3.264-0.001-4.875,0c-2.293,0.001-2.293,0.001-2.292-2.27
			c0-0.516,0-1.033,0-1.651c-2.559,0-5.044,0-7.587,0c0,2.138,0,4.242,0,6.495c3.203,0,6.374,0,9.644,0c0,1.841,0,3.537,0,5.367
			c-3.181,0-6.393,0-9.675,0c0,2.43,0,4.729,0,7.182c1.121,0,2.252,0,3.458,0c0,1.973,0,3.794,0,5.712
			c-0.291,0.029-0.593,0.086-0.896,0.087c-4.117,0.015-8.235,0.005-12.352,0.047c-0.842,0.009-1.118-0.268-1.085-1.106
			C49.618,45.492,49.576,43.979,49.576,42.258z M59.593,30.705c0-2.936,0-5.674,0-8.427c3.163,0,6.229,0,9.441,0
			c0,1.274,0,2.491,0,3.737c1.877,0,3.605,0,5.346,0c0-2.69,0-5.274,0-7.927c-7.947,0-15.83,0-23.71,0c0,1.313,0,2.525,0,3.864
			c1.199,0,2.296,0,3.362,0c0,7.148,0,14.165,0,21.32c-1.183,0-2.28,0-3.36,0c0,1.354,0,2.564,0,3.748c4.166,0,8.225,0,12.265,0
			c0-1.308,0-2.523,0-3.833c-1.164,0-2.23,0-3.362,0c0-2.991,0-5.883,0-8.932c3.249,0,6.42,0,9.601,0c0-1.254,0-2.35,0-3.549
			C65.946,30.705,62.801,30.705,59.593,30.705z"/>
		<path fill-rule="evenodd" clip-rule="evenodd" fill="#FFFFFF" d="M48.932,79.848c-3.659,5.242-8.491,7.876-14.697,7.741
			c-5.862-0.127-10.402-2.771-13.862-7.741C29.963,79.848,39.32,79.848,48.932,79.848z"/>
		<path fill-rule="evenodd" clip-rule="evenodd" fill="#FFFFFF" d="M28.86,65.167c3.954,0,7.781,0,11.708,0
			c0,4.351,0,8.675,0,13.097c-3.852,0-7.738,0-11.708,0C28.86,73.94,28.86,69.612,28.86,65.167z"/>
		<path fill-rule="evenodd" clip-rule="evenodd" fill="#FFFFFF" d="M33.531,53.998c-4.735,8.14-9.336,16.048-14.081,24.202
			c-2.339-5.575-2.28-10.812,0.616-15.828C22.974,57.334,27.481,54.653,33.531,53.998z"/>
		<path fill-rule="evenodd" clip-rule="evenodd" fill="#FFFFFF" d="M35.773,54.002c6.005,0.654,10.463,3.277,13.374,8.221
			c2.947,5.005,3.074,10.242,0.781,15.807C45.187,69.98,40.56,62.127,35.773,54.002z"/>
		<path fill-rule="evenodd" clip-rule="evenodd" fill="#FFFFFF" d="M28.894,64.036c1.922-3.309,3.78-6.508,5.748-9.894
			c1.973,3.338,3.869,6.547,5.846,9.894C36.591,64.036,32.834,64.036,28.894,64.036z"/>
		<path fill-rule="evenodd" clip-rule="evenodd" fill="#FFFFFF" d="M49.126,78.709c-2.608,0-4.954,0-7.369,0
			c0-4.077,0-8.087,0-12.098c0.062-0.031,0.124-0.062,0.185-0.092C44.311,70.537,46.678,74.556,49.126,78.709z"/>
		<path fill-rule="evenodd" clip-rule="evenodd" fill="#FFFFFF" d="M27.657,78.741c-2.406,0-4.712,0-7.309,0
			c2.433-4.192,4.789-8.251,7.309-12.593C27.657,70.517,27.657,74.572,27.657,78.741z"/>
		<path fill-rule="evenodd" clip-rule="evenodd" fill="#FFFFFF" d="M84.523,85.926c0-1.383,0-2.646,0-4.033
			c0.8-0.044,1.57-0.087,2.361-0.131c0-6.97,0-13.826,0-20.754c-0.805-0.043-1.547-0.082-2.354-0.125c0-1.379,0-2.675,0-4.13
			c1.273,0,2.496,0,3.72,0c1.839,0,3.68,0.066,5.515-0.014c3.899-0.169,5.922,1.555,6.399,6.092
			c0.313,2.971-0.312,5.677-3.137,7.388c4.156,3.27,5.274,7.47,3.252,12.084c-0.945,2.157-2.583,3.517-4.949,3.593
			C91.78,86.011,88.223,85.926,84.523,85.926z M90.368,81.908c1.58-0.106,3.153-0.033,4.628-0.382
			c0.811-0.191,1.725-0.95,2.121-1.702c0.985-1.869,0.939-3.875-0.314-5.647c-0.425-0.6-1.189-1.192-1.885-1.319
			c-1.461-0.267-2.979-0.224-4.55-0.312C90.368,75.727,90.368,78.697,90.368,81.908z M90.367,68.811
			c0.971,0,1.879,0.018,2.786-0.003c3.02-0.07,4.603-2.22,3.85-5.195c-0.292-1.155-0.859-2.214-2.054-2.427
			c-1.495-0.267-3.048-0.209-4.582-0.291C90.367,63.666,90.367,66.168,90.367,68.811z"/>
		<path fill-rule="evenodd" clip-rule="evenodd" fill="#FFFFFF" d="M82.702,82.043c0,1.367,0,2.554,0,3.829
			c-2.779,0-5.517,0-8.349,0c0-1.011,0-2.027,0-3.176c0.769-0.039,1.583-0.08,2.487-0.126c-0.445-1.604-0.834-3.149-1.328-4.659
			c-0.094-0.286-0.605-0.608-0.931-0.616c-2.357-0.052-4.718-0.053-7.076,0.001c-0.321,0.008-0.826,0.344-0.919,0.632
			c-0.475,1.477-0.841,2.988-1.292,4.658c0.889,0,1.655,0,2.499,0c0,1.166,0,2.185,0,3.289c-2.711,0-5.403,0-8.173,0
			c0-1.267,0-2.482,0-3.649c0.085-0.074,0.119-0.127,0.143-0.123c1.994,0.368,2.43-0.902,2.904-2.475
			c1.885-6.266,3.896-12.493,5.914-18.906c-0.883-0.044-1.687-0.085-2.543-0.128c0-1.295,0-2.511,0-3.838
			c2.11,0,4.142-0.025,6.17,0.031c0.263,0.008,0.66,0.398,0.75,0.688c2.377,7.662,4.802,15.312,7.008,23.024
			C80.444,82.171,81.383,82.11,82.702,82.043z M74.417,73.625c-1.105-4.075-2.181-8.041-3.347-12.338
			c-1.172,4.326-2.248,8.297-3.343,12.338C70.023,73.625,72.123,73.625,74.417,73.625z"/>
		<path fill-rule="evenodd" clip-rule="evenodd" fill="#FFFFFF" d="M20.819,21.876c-1.163,0-2.231,0-3.381,0c0-1.308,0-2.52,0-3.811
			c4.129,0,8.222,0,12.375,0c0,1.267,0,2.482,0,3.801c-1.168,0-2.274,0-3.46,0c0,3.386,0,6.668,0,10.167
			C30.243,28.659,34,25.4,37.971,21.957c-1.285,0-2.327,0-3.472,0c0-1.349,0-2.56,0-3.871c4.076,0,8.172,0,12.369,0
			c0,1.182,0,2.399,0,3.635c-0.042,0.032-0.113,0.13-0.166,0.121c-1.864-0.32-3.116,0.695-4.414,1.836
			c-3.24,2.848-6.565,5.599-9.953,8.47c1.585,1.393,3.105,2.735,4.633,4.067c1.928,1.682,3.894,3.321,5.782,5.046
			c1.377,1.258,2.666,2.6,4.872,1.821c0,1.461,0,2.674,0,3.958c-4.389,0-8.727,0-13.146,0c0-1.251,0-2.462,0-3.812
			c1.25,0,2.462,0,4.031,0c-4.181-3.676-8.089-7.113-12.144-10.678c0,3.628,0,7.068,0,10.656c1.129,0,2.265,0,3.457,0
			c0,1.331,0,2.518,0,3.804c-4.087,0-8.18,0-12.37,0c0-1.194,0-2.405,0-3.756c1.094,0,2.191,0,3.37,0
			C20.819,36.098,20.819,29.08,20.819,21.876z"/>
		<path fill-rule="evenodd" clip-rule="evenodd" fill="#FFFFFF" d="M81.436,44.833c0,0.731,0,1.438,0,2.207
			c-1.347,0-2.606,0-3.951,0c0-2.673,0-5.322,0-8.037c1.579,0,3.12,0,4.651,0c1.342,4.058,4.066,5.533,7.89,4.295
			c1.839-0.595,3.086-2.243,3.114-4.118c0.027-1.788-0.836-2.938-2.86-3.665c-2.591-0.931-5.245-1.699-7.79-2.738
			c-4.18-1.706-6.103-5.198-5.054-9.127c0.875-3.279,3.219-5.2,6.412-5.999c3.452-0.862,6.696-0.602,9.215,2.774
			c0.056-0.93,0.094-1.588,0.139-2.341c1.265,0,2.512,0,3.82,0c0,2.347,0,4.65,0,7.039c-1.523,0-3.027,0-4.633,0
			c-0.061-0.146-0.155-0.353-0.231-0.565c-1.161-3.237-5.129-4.453-7.968-2.438c-2.552,1.81-2.393,5.349,0.46,6.599
			c2.585,1.133,5.337,1.882,8.009,2.818c2.845,0.996,4.991,2.685,5.589,5.831c0.897,4.722-2.446,9.452-7.213,10.221
			c-2.083,0.336-4.187,0.384-6.131-0.486C83.705,46.566,82.671,45.66,81.436,44.833z"/>
		<path fill-rule="evenodd" clip-rule="evenodd" fill="#FFFFFF" d="M59.593,30.705c3.208,0,6.354,0,9.583,0c0,1.2,0,2.295,0,3.549
			c-3.181,0-6.353,0-9.601,0c0,3.049,0,5.941,0,8.932c1.131,0,2.198,0,3.362,0c0,1.31,0,2.525,0,3.833c-4.04,0-8.099,0-12.265,0
			c0-1.183,0-2.394,0-3.748c1.08,0,2.177,0,3.36,0c0-7.156,0-14.172,0-21.32c-1.065,0-2.163,0-3.362,0c0-1.339,0-2.55,0-3.864
			c7.88,0,15.763,0,23.71,0c0,2.652,0,5.237,0,7.927c-1.74,0-3.469,0-5.346,0c0-1.246,0-2.462,0-3.737c-3.213,0-6.278,0-9.441,0
			C59.593,25.03,59.593,27.769,59.593,30.705z"/>
		<path fill-rule="evenodd" clip-rule="evenodd" d="M90.368,81.908c0-3.211,0-6.182,0-9.363c1.57,0.089,3.089,0.046,4.55,0.312
			c0.695,0.127,1.46,0.72,1.885,1.319c1.254,1.772,1.3,3.778,0.314,5.647c-0.396,0.752-1.311,1.511-2.121,1.702
			C93.521,81.875,91.948,81.802,90.368,81.908z M91.181,73.528c0,2.572,0,4.944,0,7.362c1.89-0.074,3.939,0.514,5.085-1.422
			c0.873-1.476,0.825-3.182-0.155-4.644C94.884,72.996,92.938,73.663,91.181,73.528z"/>
		<path fill-rule="evenodd" clip-rule="evenodd" d="M90.367,68.811c0-2.643,0-5.145,0-7.916c1.534,0.082,3.087,0.024,4.582,0.291
			c1.194,0.213,1.762,1.271,2.054,2.427c0.753,2.976-0.83,5.125-3.85,5.195C92.246,68.828,91.338,68.811,90.367,68.811z
			 M91.139,67.95c1.702,0.03,3.472,0.48,4.539-1.17c0.735-1.138,0.836-2.603,0.074-3.762c-1.104-1.684-2.94-1.093-4.613-1.22
			C91.139,63.882,91.139,65.828,91.139,67.95z"/>
		<path fill-rule="evenodd" clip-rule="evenodd" d="M74.417,73.625c-2.294,0-4.394,0-6.689,0c1.095-4.041,2.171-8.012,3.343-12.338
			C72.236,65.584,73.312,69.55,74.417,73.625z M73.196,72.73c-0.706-2.577-1.374-5.014-2.129-7.769
			c-0.762,2.799-1.429,5.249-2.115,7.769C70.394,72.73,71.662,72.73,73.196,72.73z"/>
		<path fill-rule="evenodd" clip-rule="evenodd" fill="#FFFFFF" d="M91.181,73.528c1.758,0.135,3.703-0.532,4.93,1.297
			c0.98,1.462,1.028,3.168,0.155,4.644c-1.146,1.936-3.195,1.348-5.085,1.422C91.181,78.473,91.181,76.101,91.181,73.528z"/>
		<path fill-rule="evenodd" clip-rule="evenodd" fill="#FFFFFF" d="M91.139,67.95c0-2.122,0-4.068,0-6.151
			c1.673,0.127,3.509-0.464,4.613,1.22c0.762,1.159,0.661,2.624-0.074,3.762C94.61,68.431,92.841,67.98,91.139,67.95z"/>
		<path fill-rule="evenodd" clip-rule="evenodd" fill="#FFFFFF" d="M73.196,72.73c-1.534,0-2.803,0-4.244,0
			c0.687-2.52,1.354-4.97,2.115-7.769C71.822,67.717,72.49,70.153,73.196,72.73z"/>
	</g>
</g>
</svg>
