<?xml version="1.0" encoding="utf-8"?>
<!-- Generator: Adobe Illustrator 16.0.0, SVG Export Plug-In . SVG Version: 6.00 Build 0)  -->
<!DOCTYPE svg PUBLIC "-//W3C//DTD SVG 1.1//EN" "http://www.w3.org/Graphics/SVG/1.1/DTD/svg11.dtd">
<svg version="1.1" id="Layer_1_xA0_Image_1_" xmlns="http://www.w3.org/2000/svg" xmlns:xlink="http://www.w3.org/1999/xlink"
	 x="0px" y="0px" width="120px" height="100px" viewBox="0 0 120 100" enable-background="new 0 0 120 100" xml:space="preserve">
<g>
	<g>
		<path fill="#CC1041" d="M7.32,93.2c0-28.301,0.006-56.604-0.024-84.906c-0.001-0.882,0.202-1.036,1.05-1.036
			C43.124,7.284,77.901,7.28,112.68,7.28c-0.004,28.625-0.008,57.25-0.012,85.876c-0.52,0.015-1.038,0.041-1.557,0.041
			C76.514,93.2,41.917,93.2,7.32,93.2z M52.481,70.899c0.265-8.796-6.441-17.881-17.765-17.965
			c-10.437-0.078-17.888,8.011-17.954,17.83c-0.066,9.953,7.89,17.889,17.881,17.88C44.662,88.635,52.469,80.87,52.481,70.899z
			 M27.196,30.112c0-1.638-0.021-3.022,0.008-4.404c0.019-0.91-0.373-2.026,0.177-2.675c0.535-0.632,1.657-0.176,2.519-0.225
			c0.549-0.032,0.918-0.114,0.904-0.794c-0.03-1.398-0.026-2.798-0.001-4.197c0.011-0.608-0.292-0.729-0.817-0.728
			c-4.237,0.011-8.475,0.015-12.713-0.003c-0.614-0.002-0.866,0.192-0.838,0.826c0.039,0.878,0.009,1.758,0.009,2.638
			c0,2.236,0.002,2.299,2.28,2.221c1.086-0.038,1.327,0.312,1.315,1.348c-0.053,5.077-0.011,10.155-0.035,15.232
			c-0.004,0.944,0.412,2.115-0.2,2.774c-0.527,0.569-1.669,0.168-2.537,0.176c-0.62,0.005-0.85,0.209-0.833,0.837
			c0.035,1.278,0.06,2.562-0.007,3.837c-0.045,0.865,0.278,1.077,1.097,1.067c3.478-0.039,6.957-0.017,10.435-0.017
			c2.838,0,2.838,0,2.838-2.892c0-2.727,0-2.756-2.671-2.801c-0.747-0.012-0.956-0.255-0.942-0.97
			c0.038-1.959,0.006-3.918,0.02-5.877c0.001-0.246-0.152-0.568,0.275-0.76c2.775,2.443,5.567,4.902,8.62,7.589
			c-0.687,0-1,0.039-1.3-0.007c-1.037-0.159-1.432,0.208-1.338,1.299c0.102,1.191,0.048,2.398,0.014,3.596
			c-0.018,0.628,0.217,0.835,0.836,0.833c4.478-0.017,8.956-0.021,13.433,0.003c0.7,0.003,0.9-0.259,0.874-0.919
			c-0.042-1.038-0.003-2.079-0.013-3.118c-0.019-1.894,0.234-1.716-1.633-1.667c-1.096,0.029-1.947-0.232-2.794-0.995
			c-3.237-2.913-6.542-5.751-9.843-8.593c-0.522-0.449-0.561-0.679,0.009-1.149c2.831-2.344,5.657-4.696,8.408-7.132
			c1.241-1.099,2.452-2.007,4.225-1.674c0.743,0.139,0.961-0.241,0.933-0.958c-0.049-1.238-0.051-2.48,0-3.717
			c0.032-0.758-0.178-1.046-0.992-1.039c-4.158,0.037-8.316,0.031-12.474,0.004c-0.711-0.004-1.014,0.184-0.972,0.941
			c0.055,0.997,0.014,1.998,0.014,2.998c0,1.654,0,1.652,1.66,1.833c0.043,0.005,0.075,0.113,0.149,0.234
			C32.664,25.369,30.027,27.657,27.196,30.112z M84.429,86.887c3.279,0,6.558-0.004,9.836,0.001
			c2.704,0.003,4.945-0.914,6.375-3.314c2.079-3.487,2.17-9.751-1.455-12.849c-0.337-0.289-0.578-0.494-0.171-0.947
			c2.423-2.693,2.511-5.846,1.658-9.121c-0.792-3.047-2.543-4.598-5.685-4.737c-3.552-0.156-7.113-0.05-10.671-0.074
			c-0.603-0.005-0.734,0.293-0.725,0.817c0.021,1.281,0.083,2.565-0.018,3.837c-0.085,1.08,0.286,1.481,1.33,1.293
			c1.003-0.181,1.167,0.322,1.161,1.209c-0.036,5.318-0.018,10.635-0.018,15.954c0,1.855-0.001,1.849-1.809,1.991
			c-0.271,0.02-0.535,0.131-0.804,0.189c-1.753,0.387-2.194,0.141-2.756-1.548c-0.214-0.645-0.404-1.296-0.604-1.944
			c-2.131-6.945-4.264-13.892-6.391-20.839c-0.154-0.503-0.237-0.98-0.971-0.97c-2.277,0.037-4.557,0.029-6.836,0.005
			c-0.675-0.007-0.791,0.324-0.779,0.893c0.025,1.199,0.056,2.401-0.008,3.597c-0.048,0.896,0.163,1.387,1.167,1.215
			c1.024-0.173,1.073,0.226,0.786,1.116c-1.811,5.624-3.613,11.252-5.297,16.915c-0.377,1.267-0.883,1.846-2.197,1.617
			c-0.654-0.114-0.93,0.159-0.905,0.858c0.045,1.317,0.045,2.641,0,3.958c-0.024,0.693,0.236,0.896,0.901,0.887
			c2.798-0.024,5.598-0.021,8.396-0.001c0.605,0.005,0.861-0.18,0.84-0.82c-0.039-1.157-0.044-2.32,0.001-3.477
			c0.027-0.684-0.213-0.894-0.889-0.898c-1.387-0.012-1.387-0.049-1.047-1.415c0.077-0.311,0.182-0.616,0.227-0.932
			c0.132-0.942,0.572-1.354,1.599-1.258c1.149,0.109,2.317,0.026,3.476,0.026c2.525,0,2.472,0.015,3.225,2.417
			c0.332,1.063-0.014,1.299-0.951,1.175c-0.824-0.109-1.149,0.192-1.092,1.055c0.068,1.034,0.067,2.082-0.001,3.115
			c-0.053,0.812,0.252,1.026,1.024,1.018C77.712,86.868,81.071,86.887,84.429,86.887z M82.455,46.905
			c4.344,2.777,10.188,2.026,13.338-0.599c4.937-4.114,4.639-11.653-0.682-14.647c-1.152-0.649-2.408-1.058-3.649-1.504
			c-2.14-0.77-4.396-1.212-6.452-2.209c-1.687-0.818-2.216-2.77-1.153-4.233c1.132-1.56,2.777-1.782,4.517-1.514
			c1.701,0.263,2.675,1.231,2.958,2.997c0.123,0.764,0.458,0.876,1.109,0.861c1.519-0.035,3.041-0.055,4.557,0.007
			c0.821,0.034,1.021-0.275,1.009-1.037c-0.038-2.279-0.061-4.56,0.009-6.837c0.028-0.949-0.323-1.167-1.182-1.108
			c-0.955,0.065-1.928-0.065-2.874,0.044c-0.608,0.07-1.605-0.609-1.764,0.723c-0.029,0.244-0.321,0.009-0.474-0.08
			c-3.779-2.215-7.523-1.75-11.138,0.322c-3.327,1.908-5.003,5.91-4.095,9.445c0.793,3.089,2.95,4.996,5.777,6.126
			c2.591,1.036,5.29,1.799,7.906,2.775c2.36,0.88,2.851,3.502,0.97,5.171c-1.554,1.378-3.414,1.471-5.304,0.842
			c-1.698-0.565-2.558-1.855-2.672-3.612c-0.04-0.612-0.235-0.835-0.858-0.823c-1.638,0.033-3.278,0.034-4.917,0
			c-0.659-0.015-0.925,0.176-0.916,0.876c0.03,2.759,0.031,5.518-0.001,8.276c-0.009,0.716,0.288,0.882,0.931,0.864
			c1.238-0.035,2.481-0.051,3.718,0.005C81.948,48.073,82.534,47.938,82.455,46.905z M62.513,17.094
			c-3.159,0-6.319-0.014-9.478,0.008c-1.073,0.007-2.473-0.457-3.133,0.187c-0.725,0.706-0.212,2.129-0.232,3.236
			c-0.041,2.257-0.011,2.306,2.271,2.25c0.98-0.024,1.297,0.233,1.287,1.255c-0.051,5.159-0.02,10.318-0.027,15.478
			c-0.002,0.875,0.259,1.979-0.168,2.563c-0.473,0.648-1.643,0.216-2.502,0.222c-0.7,0.004-0.902,0.261-0.882,0.918
			c0.035,1.199,0.059,2.402-0.006,3.599c-0.05,0.919,0.216,1.256,1.2,1.238c3.358-0.06,6.718-0.023,10.078-0.023
			c3.028,0,3.028,0,3.028-3.061c0-2.577,0-2.615-2.598-2.628c-0.832-0.004-0.997-0.311-0.978-1.053
			c0.045-1.678,0.07-3.361-0.008-5.038c-0.046-0.949,0.312-1.125,1.17-1.108c2.518,0.052,5.038-0.023,7.558,0.041
			c0.926,0.023,1.18-0.286,1.121-1.162c-0.069-1.036-0.064-2.082-0.001-3.118c0.052-0.832-0.214-1.109-1.068-1.092
			c-2.599,0.05-5.199-0.002-7.799,0.031c-0.703,0.009-1.001-0.162-0.976-0.93c0.054-1.638,0.055-3.28,0.001-4.917
			c-0.026-0.786,0.308-0.934,0.992-0.914c1.318,0.04,2.639,0.012,3.959,0.012c2.76,0,2.76,0,2.802,2.805
			c0.001,0.08,0.009,0.161,0,0.24c-0.084,0.687,0.232,0.9,0.9,0.887c1.759-0.035,3.52-0.047,5.278,0.004
			c0.797,0.023,1.021-0.256,1.01-1.029c-0.04-2.599-0.056-5.199,0.006-7.797c0.022-0.93-0.298-1.132-1.165-1.122
			C70.271,17.119,66.392,17.095,62.513,17.094z"/>
		<path fill-rule="evenodd" clip-rule="evenodd" fill="#DF4D55" d="M112.668,93.156c0.004-28.626,0.008-57.25,0.012-85.876
			c0.151,0.099,0.509-0.234,0.483,0.24c-0.016,0.279-0.003,0.56-0.003,0.84c0,28.28,0,56.56,0,84.84
			C112.996,93.186,112.832,93.17,112.668,93.156z"/>
		<path fill-rule="evenodd" clip-rule="evenodd" fill="#FBFBFB" d="M112.668,93.156c0.164,0.015,0.328,0.03,0.492,0.044
			c-0.217,0.497-0.648,0.226-0.961,0.226C101.52,93.443,90.84,93.44,80.16,93.44c-23.92,0-47.84,0.001-71.76-0.015
			c-0.351,0-0.813,0.277-1.08-0.226c34.597,0,69.194,0,103.792-0.003C111.63,93.197,112.148,93.17,112.668,93.156z"/>
		<path fill-rule="evenodd" clip-rule="evenodd" fill="#120A0C" d="M52.481,70.899c-0.012,9.971-7.819,17.736-17.837,17.745
			c-9.992,0.009-17.947-7.927-17.881-17.88c0.066-9.819,7.518-17.908,17.954-17.83C46.04,53.018,52.746,62.103,52.481,70.899z
			 M20.542,79.787c2.221,4.776,9.208,8.281,15.313,7.779c5.573-0.46,9.858-3.027,13.097-7.779
			C39.339,79.787,29.995,79.787,20.542,79.787z M40.664,71.719c0-1.916-0.018-3.835,0.01-5.75c0.009-0.579-0.086-0.854-0.766-0.848
			c-3.434,0.034-6.869,0.029-10.303,0.004c-0.605-0.004-0.837,0.147-0.833,0.794c0.026,3.913,0.026,7.827,0,11.741
			c-0.004,0.625,0.259,0.703,0.78,0.702c3.434-0.017,6.869-0.029,10.303,0.008c0.732,0.009,0.833-0.276,0.822-0.901
			C40.643,75.552,40.664,73.635,40.664,71.719z M19.36,78.004c0.692-0.767,13.417-22.559,14.007-23.972
			c-5.754,0.577-10.216,3.198-13.155,8.103C17.173,67.205,17.099,72.53,19.36,78.004z M49.903,77.977
			C55,66.358,46.806,54.586,35.857,54.129C40.539,62.079,45.183,69.962,49.903,77.977z M34.645,54.143
			c-1.966,3.385-3.847,6.625-5.778,9.951c3.932,0,7.7,0,11.643,0C38.541,60.752,36.635,57.52,34.645,54.143z M49.164,78.773
			c-2.499-4.234-4.881-8.271-7.263-12.309c-0.209,3.867-0.19,7.622-0.226,11.376c-0.006,0.723,0.165,0.969,0.925,0.951
			C44.711,78.739,46.825,78.773,49.164,78.773z M20.326,78.772c2.378,0,4.491-0.03,6.602,0.017c0.715,0.015,0.851-0.243,0.846-0.894
			c-0.028-3.51-0.01-7.02-0.019-10.529c-0.001-0.325,0.104-0.682-0.165-1.079C25.174,70.437,22.807,74.506,20.326,78.772z"/>
		<path fill-rule="evenodd" clip-rule="evenodd" fill="#170E10" d="M27.196,30.112c2.831-2.455,5.468-4.743,8.097-7.024
			c-0.074-0.121-0.106-0.229-0.149-0.234c-1.66-0.181-1.66-0.18-1.66-1.833c0-1,0.041-2.001-0.014-2.998
			c-0.042-0.757,0.261-0.945,0.972-0.941c4.158,0.026,8.316,0.033,12.474-0.004c0.814-0.007,1.024,0.28,0.992,1.039
			c-0.051,1.237-0.049,2.479,0,3.717c0.029,0.716-0.189,1.096-0.933,0.958c-1.772-0.333-2.984,0.575-4.225,1.674
			c-2.751,2.436-5.577,4.788-8.408,7.132c-0.569,0.47-0.531,0.7-0.009,1.149c3.301,2.842,6.606,5.68,9.843,8.593
			c0.847,0.763,1.698,1.024,2.794,0.995c1.868-0.05,1.614-0.228,1.633,1.667c0.01,1.04-0.029,2.08,0.013,3.118
			c0.026,0.66-0.174,0.922-0.874,0.919c-4.478-0.024-8.956-0.02-13.433-0.003c-0.619,0.003-0.854-0.205-0.836-0.833
			c0.035-1.198,0.088-2.405-0.014-3.596c-0.094-1.091,0.301-1.458,1.338-1.299c0.3,0.046,0.613,0.007,1.3,0.007
			c-3.052-2.687-5.845-5.146-8.62-7.589c-0.427,0.192-0.274,0.515-0.275,0.76c-0.014,1.959,0.018,3.918-0.02,5.877
			c-0.014,0.715,0.195,0.958,0.942,0.97c2.671,0.044,2.671,0.074,2.671,2.801c0,2.892,0,2.892-2.838,2.892
			c-3.478,0-6.957-0.022-10.435,0.017c-0.819,0.009-1.142-0.203-1.097-1.067c0.067-1.275,0.042-2.559,0.007-3.837
			c-0.018-0.628,0.213-0.832,0.833-0.837c0.868-0.007,2.01,0.393,2.537-0.176c0.612-0.659,0.196-1.83,0.2-2.774
			c0.024-5.077-0.018-10.156,0.035-15.232c0.011-1.036-0.229-1.385-1.315-1.348c-2.278,0.078-2.28,0.016-2.28-2.221
			c0-0.88,0.03-1.76-0.009-2.638c-0.028-0.633,0.224-0.828,0.838-0.826c4.238,0.018,8.476,0.014,12.713,0.003
			c0.525-0.001,0.828,0.12,0.817,0.728c-0.025,1.399-0.029,2.799,0.001,4.197c0.014,0.68-0.355,0.763-0.904,0.794
			c-0.862,0.049-1.984-0.408-2.519,0.225c-0.549,0.648-0.158,1.765-0.177,2.675C27.175,27.09,27.196,28.474,27.196,30.112z
			 M26.262,32.447c4.16,3.66,8.1,7.126,12.264,10.789c-0.675,0-0.988,0-1.301,0c-2.89,0.002-2.862,0.001-2.842,2.955
			c0.005,0.743,0.202,0.937,0.94,0.927c3.16-0.042,6.318-0.018,9.478-0.018c2.978,0,2.954,0,2.908-3.022
			c-0.01-0.685-0.204-0.876-0.874-0.861c-0.847,0.019-1.7,0.181-2.479-0.511c-3.795-3.367-7.631-6.688-11.467-10.01
			c-0.472-0.409-0.479-0.664,0.009-1.072c3.675-3.078,7.333-6.176,10.989-9.277c0.312-0.265,0.602-0.457,1.044-0.482
			c2.027-0.113,2.026-0.13,2.026-2.195c0-0.28-0.033-0.564,0.006-0.839c0.102-0.71-0.224-0.853-0.877-0.846
			c-2.919,0.031-5.839,0.013-8.758,0.013c-3.074,0-3.074,0-2.926,3.096c0.002,0.04,0.005,0.08,0,0.12
			c-0.065,0.531,0.182,0.691,0.693,0.672c0.892-0.033,1.787-0.009,2.98-0.009c-4.055,3.516-7.853,6.81-11.813,10.245
			c0-3.37,0.019-6.481-0.015-9.592c-0.007-0.681,0.346-0.645,0.817-0.662c0.907-0.034,2.178,0.413,2.623-0.188
			c0.465-0.627,0.11-1.834,0.2-2.779c0.071-0.758-0.199-0.929-0.926-0.92c-3.519,0.037-7.039,0.043-10.557-0.004
			c-0.828-0.011-1.145,0.185-1.055,1.043c0.095,0.905-0.245,2.059,0.201,2.665c0.429,0.581,1.645,0.186,2.509,0.171
			c0.69-0.011,0.874,0.213,0.871,0.888c-0.022,6.518-0.024,13.037,0.001,19.555c0.003,0.727-0.178,0.975-0.934,0.959
			c-0.856-0.018-2.035-0.421-2.495,0.197c-0.426,0.572-0.123,1.686-0.14,2.561c-0.003,0.161,0.013,0.322-0.002,0.48
			c-0.045,0.473,0.172,0.611,0.629,0.61c3.759-0.014,7.518-0.01,11.277-0.005c0.359,0,0.623-0.043,0.609-0.502
			c-0.033-1.073,0.259-2.296-0.169-3.169c-0.286-0.582-1.617-0.117-2.477-0.194c-0.08-0.007-0.161-0.011-0.24,0
			c-0.586,0.082-0.744-0.185-0.74-0.75C26.273,39.251,26.262,36.014,26.262,32.447z"/>
		<path fill-rule="evenodd" clip-rule="evenodd" fill="#120A0C" d="M84.429,86.887c-3.357,0-6.717-0.02-10.075,0.014
			c-0.772,0.009-1.077-0.205-1.024-1.018c0.068-1.033,0.069-2.081,0.001-3.115c-0.058-0.862,0.268-1.164,1.092-1.055
			c0.938,0.124,1.283-0.111,0.951-1.175c-0.753-2.402-0.699-2.417-3.225-2.417c-1.158,0-2.326,0.083-3.476-0.026
			c-1.026-0.096-1.467,0.315-1.599,1.258c-0.045,0.315-0.149,0.621-0.227,0.932c-0.34,1.366-0.34,1.403,1.047,1.415
			c0.676,0.005,0.916,0.215,0.889,0.898c-0.045,1.156-0.04,2.319-0.001,3.477c0.021,0.641-0.234,0.825-0.84,0.82
			c-2.799-0.021-5.599-0.023-8.396,0.001c-0.665,0.009-0.925-0.193-0.901-0.887c0.046-1.317,0.045-2.641,0-3.958
			c-0.024-0.699,0.251-0.973,0.905-0.858c1.314,0.229,1.82-0.351,2.197-1.617c1.684-5.663,3.486-11.291,5.297-16.915
			c0.287-0.891,0.238-1.289-0.786-1.116c-1.004,0.172-1.215-0.319-1.167-1.215c0.063-1.195,0.033-2.397,0.008-3.597
			c-0.012-0.568,0.104-0.899,0.779-0.893c2.279,0.024,4.559,0.032,6.836-0.005c0.733-0.011,0.816,0.467,0.971,0.97
			c2.127,6.947,4.26,13.894,6.391,20.839c0.199,0.648,0.39,1.3,0.604,1.944c0.562,1.688,1.003,1.935,2.756,1.548
			c0.269-0.059,0.532-0.17,0.804-0.189c1.808-0.143,1.809-0.136,1.809-1.991c0-5.319-0.019-10.636,0.018-15.954
			c0.006-0.887-0.158-1.39-1.161-1.209c-1.044,0.188-1.415-0.213-1.33-1.293c0.101-1.271,0.038-2.556,0.018-3.837
			c-0.01-0.524,0.122-0.822,0.725-0.817c3.558,0.024,7.119-0.082,10.671,0.074c3.142,0.14,4.893,1.69,5.685,4.737
			c0.853,3.275,0.765,6.428-1.658,9.121c-0.407,0.453-0.166,0.658,0.171,0.947c3.625,3.098,3.534,9.361,1.455,12.849
			c-1.43,2.4-3.671,3.317-6.375,3.314C90.986,86.883,87.708,86.887,84.429,86.887z M97,70.29c3.311-2.26,3.516-5.206,3.086-8.176
			c-0.568-3.918-2.392-5.354-6.329-5.355c-2.239,0-4.479,0-6.718,0c-2.576,0-2.514,0.002-2.604,2.629
			c-0.042,1.206,0.225,1.785,1.532,1.567c0.499-0.085,1.01-0.138,1.007,0.719c-0.03,6.479-0.021,12.958-0.008,19.438
			c0.001,0.49-0.125,0.691-0.658,0.737c-1.848,0.158-1.846,0.183-1.846,2.032c0,0.4,0.034,0.803-0.008,1.198
			c-0.07,0.67,0.163,0.9,0.863,0.891c3.198-0.038,6.398-0.006,9.598-0.032c2.017-0.017,3.641-0.875,4.776-2.535
			C102.588,79.167,101.359,73.101,97,70.29z M76.884,82.677c-0.881,0-1.881-0.294-2.407,0.08c-0.595,0.421-0.108,1.489-0.217,2.264
			c-0.101,0.717,0.134,0.983,0.904,0.953c1.557-0.063,3.118-0.019,4.678-0.019c2.945,0,2.905,0,2.933-2.895
			c0.008-0.881-0.289-1.135-1.089-1.017c-0.806,0.122-1.271-0.112-1.539-1.009c-2.057-6.875-4.172-13.735-6.278-20.597
			c-0.372-1.212-0.447-2.88-1.278-3.483c-0.846-0.614-2.457-0.19-3.733-0.195c-3.103-0.01-3.084-0.005-2.91,3.151
			c0.032,0.582,0.215,0.787,0.773,0.739c0.317-0.027,0.644,0.029,0.958-0.012c0.85-0.111,0.874,0.199,0.643,0.926
			c-2.105,6.612-4.175,13.234-6.236,19.857c-0.123,0.397-0.256,0.615-0.707,0.638c-0.582,0.029-1.387-0.31-1.689,0.182
			c-0.29,0.473-0.113,1.23-0.136,1.863c-0.008,0.2,0.025,0.404-0.005,0.599c-0.149,0.953,0.165,1.331,1.204,1.277
			c1.715-0.093,3.438-0.025,5.158-0.025c1.963,0,1.886-0.004,1.991-1.92c0.062-1.148-0.239-1.622-1.415-1.412
			c-0.345,0.063-0.71,0.011-1.2,0.011c0.448-1.677,0.889-3.245,1.279-4.826c0.132-0.536,0.475-0.552,0.896-0.552
			c2.4,0.006,4.8,0.013,7.198-0.006c0.519-0.005,0.78,0.14,0.917,0.684C75.961,79.477,76.415,81.001,76.884,82.677z"/>
		<path fill-rule="evenodd" clip-rule="evenodd" fill="#120A0C" d="M82.455,46.905c0.079,1.032-0.507,1.168-1.332,1.131
			c-1.236-0.056-2.479-0.04-3.718-0.005c-0.643,0.018-0.939-0.148-0.931-0.864c0.032-2.758,0.031-5.518,0.001-8.276
			c-0.009-0.7,0.257-0.891,0.916-0.876c1.639,0.035,3.279,0.033,4.917,0c0.623-0.012,0.818,0.211,0.858,0.823
			c0.114,1.756,0.974,3.046,2.672,3.612c1.89,0.629,3.75,0.537,5.304-0.842c1.881-1.669,1.391-4.291-0.97-5.171
			c-2.616-0.976-5.315-1.739-7.906-2.775c-2.827-1.13-4.984-3.037-5.777-6.126c-0.908-3.535,0.768-7.537,4.095-9.445
			c3.614-2.072,7.358-2.537,11.138-0.322c0.152,0.088,0.444,0.324,0.474,0.08c0.158-1.333,1.155-0.653,1.764-0.723
			c0.946-0.109,1.919,0.021,2.874-0.044c0.858-0.059,1.21,0.159,1.182,1.108c-0.069,2.277-0.047,4.558-0.009,6.837
			c0.013,0.761-0.188,1.07-1.009,1.037c-1.516-0.062-3.038-0.042-4.557-0.007c-0.651,0.015-0.986-0.097-1.109-0.861
			c-0.283-1.766-1.257-2.734-2.958-2.997c-1.739-0.269-3.385-0.046-4.517,1.514c-1.062,1.463-0.533,3.415,1.153,4.233
			c2.057,0.998,4.312,1.44,6.452,2.209c1.241,0.446,2.497,0.855,3.649,1.504c5.32,2.995,5.618,10.533,0.682,14.647
			C92.643,48.931,86.799,49.683,82.455,46.905z M81.662,44.718c0.831,0.718,1.529,1.645,2.584,2.149
			c3.731,1.786,8.736,0.965,11.684-1.933c3.716-3.653,3.522-10.745-2.403-13.042c-1.675-0.648-3.366-1.238-5.083-1.762
			c-1.448-0.442-2.924-0.818-4.242-1.601c-1.449-0.86-2.082-2.391-1.672-3.997c0.471-1.849,1.967-3.112,4.088-3.302
			c2.056-0.184,4.214,0.123,4.974,2.224c0.674,1.865,1.79,1.842,3.235,1.751c0.518-0.033,1.039-0.028,1.559,0.001
			c0.5,0.028,0.709-0.127,0.7-0.67c-0.026-1.958-0.008-3.918-0.013-5.877c-0.002-0.224,0.082-0.601-0.188-0.613
			c-1.156-0.053-2.367-0.231-3.455,0.043c-0.636,0.159-0.145,1.209-0.277,1.843c-0.021,0.099-0.087,0.188-0.185,0.39
			c-2.406-3.29-5.688-3.535-9.174-2.654c-3.142,0.794-5.457,2.705-6.341,5.92c-1.079,3.923,0.827,7.455,4.98,9.154
			c2.651,1.085,5.431,1.854,8.116,2.861c2.865,1.074,3.492,4.454,1.291,6.603c-2.968,2.895-8.408,1.468-9.456-2.5
			c-0.143-0.54-0.283-0.818-0.919-0.783c-1.115,0.062-2.238,0.034-3.357,0.01c-0.478-0.01-0.722,0.078-0.714,0.643
			c0.027,2.278,0.008,4.558,0.017,6.836c0.001,0.252-0.121,0.652,0.293,0.661c1.196,0.023,2.459,0.212,3.56-0.118
			c0.545-0.164,0.085-1.387,0.224-2.118C81.491,44.814,81.543,44.798,81.662,44.718z"/>
		<path fill-rule="evenodd" clip-rule="evenodd" fill="#170E10" d="M62.513,17.094c3.879,0,7.759,0.024,11.639-0.018
			c0.867-0.01,1.188,0.192,1.165,1.122c-0.062,2.598-0.046,5.198-0.006,7.797c0.012,0.772-0.213,1.052-1.01,1.029
			c-1.759-0.051-3.52-0.039-5.278-0.004c-0.668,0.013-0.984-0.2-0.9-0.887c0.009-0.079,0.001-0.16,0-0.24
			c-0.042-2.805-0.042-2.805-2.802-2.805c-1.32,0-2.641,0.028-3.959-0.012c-0.685-0.02-1.019,0.128-0.992,0.914
			c0.054,1.637,0.053,3.28-0.001,4.917c-0.025,0.768,0.272,0.938,0.976,0.93c2.6-0.033,5.2,0.02,7.799-0.031
			c0.854-0.017,1.12,0.26,1.068,1.092c-0.063,1.036-0.068,2.082,0.001,3.118c0.059,0.876-0.195,1.185-1.121,1.162
			c-2.52-0.064-5.04,0.011-7.558-0.041c-0.858-0.018-1.216,0.159-1.17,1.108c0.078,1.676,0.053,3.359,0.008,5.038
			c-0.02,0.743,0.146,1.049,0.978,1.053c2.598,0.014,2.598,0.051,2.598,2.628c0,3.061,0,3.061-3.028,3.061
			c-3.359,0-6.72-0.037-10.078,0.023c-0.983,0.018-1.25-0.319-1.2-1.238c0.065-1.196,0.042-2.399,0.006-3.599
			c-0.02-0.657,0.182-0.914,0.882-0.918c0.86-0.006,2.029,0.426,2.502-0.222c0.427-0.585,0.166-1.688,0.168-2.563
			c0.007-5.159-0.024-10.319,0.027-15.478c0.01-1.022-0.307-1.28-1.287-1.255c-2.282,0.056-2.312,0.007-2.271-2.25
			c0.02-1.107-0.492-2.53,0.232-3.236c0.66-0.644,2.061-0.179,3.133-0.187C56.194,17.081,59.354,17.094,62.513,17.094z
			 M62.587,17.999c-3.637,0-7.275,0.028-10.912-0.02c-0.884-0.012-1.142,0.205-1.124,1.121c0.055,2.723,0.008,2.757,2.678,2.758
			c0.753,0,0.92,0.209,0.916,0.938c-0.029,6.515-0.024,13.031-0.005,19.546c0.002,0.632-0.099,0.923-0.833,0.918
			c-0.894-0.005-2.124-0.453-2.601,0.214c-0.439,0.614-0.077,1.774-0.142,2.689c-0.051,0.707,0.119,0.967,0.9,0.957
			c3.557-0.045,7.115-0.045,10.672,0c0.782,0.01,0.97-0.257,0.896-0.957c-0.098-0.943,0.389-2.153-0.206-2.756
			c-0.444-0.45-1.657-0.182-2.525-0.158c-0.617,0.018-0.839-0.167-0.83-0.809c0.032-2.438,0.037-4.876-0.003-7.314
			c-0.011-0.699,0.224-0.885,0.892-0.874c2.118,0.035,4.237,0.014,6.354,0.014c2.596,0,2.56,0,2.562-2.637
			c0.001-0.771-0.238-0.917-0.946-0.906c-2.638,0.041-5.277-0.009-7.915,0.032c-0.733,0.012-0.963-0.196-0.947-0.94
			c0.046-2.237,0.05-4.477-0.001-6.714c-0.019-0.782,0.275-0.927,0.975-0.911c1.878,0.043,3.757-0.006,5.635,0.023
			c0.949,0.015,2.171-0.411,2.773,0.178c0.606,0.592,0.184,1.82,0.175,2.765c-0.006,0.703,0.145,1.006,0.917,0.966
			c1.195-0.061,2.399-0.061,3.596,0c0.778,0.039,0.923-0.28,0.909-0.975c-0.039-2.037-0.058-4.078,0.006-6.114
			c0.028-0.861-0.251-1.061-1.071-1.051C69.782,18.023,66.185,17.999,62.587,17.999z"/>
		<path fill-rule="evenodd" clip-rule="evenodd" fill="#FBFBFB" d="M20.542,79.787c9.453,0,18.797,0,28.41,0
			c-3.239,4.752-7.524,7.319-13.097,7.779C29.75,88.068,22.763,84.563,20.542,79.787z"/>
		<path fill-rule="evenodd" clip-rule="evenodd" fill="#FBFBFB" d="M40.664,71.719c0,1.916-0.021,3.833,0.013,5.75
			c0.011,0.625-0.09,0.91-0.822,0.901c-3.434-0.037-6.869-0.024-10.303-0.008c-0.521,0.001-0.784-0.077-0.78-0.702
			c0.026-3.914,0.026-7.828,0-11.741c-0.004-0.646,0.228-0.798,0.833-0.794c3.434,0.025,6.869,0.03,10.303-0.004
			c0.68-0.006,0.775,0.269,0.766,0.848C40.646,67.884,40.664,69.803,40.664,71.719z"/>
		<path fill-rule="evenodd" clip-rule="evenodd" fill="#FBFBFB" d="M19.36,78.004c-2.261-5.475-2.187-10.8,0.852-15.869
			c2.939-4.904,7.401-7.525,13.155-8.103C32.777,55.446,20.052,77.238,19.36,78.004z"/>
		<path fill-rule="evenodd" clip-rule="evenodd" fill="#FBFBFB" d="M49.903,77.977c-4.72-8.015-9.365-15.898-14.046-23.848
			C46.806,54.586,55,66.358,49.903,77.977z"/>
		<path fill-rule="evenodd" clip-rule="evenodd" fill="#F8F8F8" d="M34.645,54.143c1.99,3.377,3.896,6.609,5.865,9.951
			c-3.943,0-7.711,0-11.643,0C30.798,60.768,32.679,57.528,34.645,54.143z"/>
		<path fill-rule="evenodd" clip-rule="evenodd" fill="#F8F8F8" d="M49.164,78.773c-2.339,0-4.453-0.034-6.564,0.019
			c-0.76,0.018-0.931-0.229-0.925-0.951c0.035-3.754,0.017-7.509,0.226-11.376C44.283,70.501,46.665,74.539,49.164,78.773z"/>
		<path fill-rule="evenodd" clip-rule="evenodd" fill="#FBFBFB" d="M20.326,78.772c2.481-4.266,4.849-8.335,7.264-12.485
			c0.269,0.397,0.164,0.754,0.165,1.079c0.009,3.51-0.009,7.02,0.019,10.529c0.005,0.65-0.13,0.908-0.846,0.894
			C24.816,78.742,22.704,78.772,20.326,78.772z"/>
		<path fill-rule="evenodd" clip-rule="evenodd" fill="#FBFBFB" d="M26.262,32.447c0,3.567,0.011,6.804-0.011,10.041
			c-0.004,0.565,0.154,0.832,0.74,0.75c0.079-0.011,0.16-0.007,0.24,0c0.859,0.078,2.19-0.387,2.477,0.194
			c0.428,0.873,0.137,2.096,0.169,3.169c0.014,0.459-0.25,0.503-0.609,0.502c-3.759-0.005-7.518-0.009-11.277,0.005
			c-0.457,0.001-0.674-0.137-0.629-0.61c0.015-0.159,0-0.32,0.002-0.48c0.017-0.875-0.286-1.989,0.14-2.561
			c0.46-0.618,1.638-0.215,2.495-0.197c0.756,0.016,0.938-0.232,0.934-0.959c-0.026-6.518-0.023-13.037-0.001-19.555
			c0.002-0.674-0.181-0.899-0.871-0.888c-0.865,0.014-2.081,0.409-2.509-0.171c-0.446-0.605-0.106-1.76-0.201-2.665
			c-0.089-0.858,0.228-1.054,1.055-1.043c3.519,0.047,7.039,0.041,10.557,0.004c0.727-0.009,0.997,0.162,0.926,0.92
			c-0.089,0.945,0.266,2.151-0.2,2.779c-0.445,0.6-1.716,0.154-2.623,0.188c-0.471,0.018-0.825-0.019-0.817,0.662
			c0.034,3.111,0.015,6.223,0.015,9.592c3.96-3.436,7.759-6.729,11.813-10.245c-1.194,0-2.089-0.024-2.98,0.009
			c-0.511,0.019-0.758-0.142-0.693-0.672c0.005-0.04,0.003-0.08,0-0.12c-0.148-3.096-0.148-3.096,2.926-3.096
			c2.919,0,5.839,0.018,8.758-0.013c0.653-0.007,0.979,0.136,0.877,0.846c-0.04,0.274-0.006,0.559-0.006,0.839
			c0,2.065,0.001,2.082-2.026,2.195c-0.442,0.025-0.732,0.217-1.044,0.482c-3.656,3.101-7.314,6.199-10.989,9.277
			c-0.488,0.409-0.481,0.663-0.009,1.072c3.836,3.322,7.672,6.643,11.467,10.01c0.779,0.691,1.632,0.529,2.479,0.511
			c0.67-0.015,0.864,0.176,0.874,0.861c0.046,3.022,0.07,3.022-2.908,3.022c-3.16,0-6.318-0.024-9.478,0.018
			c-0.738,0.01-0.935-0.185-0.94-0.927c-0.02-2.954-0.048-2.953,2.842-2.955c0.313,0,0.625,0,1.301,0
			C34.362,39.573,30.422,36.107,26.262,32.447z"/>
		<path fill-rule="evenodd" clip-rule="evenodd" fill="#F8F8F8" d="M97,70.29c4.359,2.812,5.588,8.877,2.692,13.113
			c-1.136,1.66-2.76,2.519-4.776,2.535c-3.199,0.026-6.399-0.006-9.598,0.032c-0.7,0.01-0.934-0.221-0.863-0.891
			c0.042-0.396,0.008-0.798,0.008-1.198c0-1.85-0.002-1.874,1.846-2.032c0.533-0.046,0.659-0.247,0.658-0.737
			c-0.013-6.48-0.022-12.96,0.008-19.438c0.003-0.856-0.508-0.804-1.007-0.719c-1.308,0.218-1.574-0.361-1.532-1.567
			c0.09-2.627,0.027-2.629,2.604-2.629c2.238,0,4.479,0,6.718,0c3.938,0.001,5.761,1.438,6.329,5.355
			C100.516,65.083,100.311,68.03,97,70.29z M90.294,77.243c0,0.359-0.021,0.719,0.004,1.075c0.08,1.14-0.521,2.856,0.221,3.29
			c1.136,0.659,2.78,0.331,4.194,0.066c1.64-0.307,2.533-1.393,2.873-2.975c0.193-0.904,0.196-1.814,0.026-2.731
			c-0.347-1.886-1.521-3.079-3.417-3.289c-1.025-0.114-2.071-0.022-3.104-0.081c-0.64-0.037-0.828,0.2-0.81,0.818
			C90.32,74.69,90.294,75.967,90.294,77.243z M90.294,64.907c0,0.399,0,0.797,0,1.196c0,2.779,0,2.779,2.813,2.716
			c3.069-0.069,4.683-2.242,3.89-5.238c-0.451-1.7-1.371-2.493-3.109-2.597c-0.953-0.057-1.912-0.005-2.867-0.054
			c-0.581-0.03-0.757,0.184-0.737,0.75C90.32,62.754,90.294,63.832,90.294,64.907z"/>
		<path fill-rule="evenodd" clip-rule="evenodd" fill="#F8F8F8" d="M76.884,82.677c-0.469-1.676-0.923-3.2-1.31-4.743
			c-0.137-0.544-0.398-0.688-0.917-0.684c-2.398,0.019-4.798,0.012-7.198,0.006c-0.421,0-0.764,0.016-0.896,0.552
			c-0.391,1.581-0.831,3.149-1.279,4.826c0.49,0,0.855,0.053,1.2-0.011c1.176-0.21,1.478,0.264,1.415,1.412
			c-0.105,1.916-0.028,1.92-1.991,1.92c-1.72,0-3.443-0.067-5.158,0.025c-1.039,0.054-1.353-0.324-1.204-1.277
			c0.03-0.194-0.002-0.398,0.005-0.599c0.023-0.633-0.153-1.391,0.136-1.863c0.302-0.491,1.107-0.152,1.689-0.182
			c0.451-0.022,0.584-0.24,0.707-0.638c2.062-6.623,4.131-13.245,6.236-19.857c0.231-0.727,0.207-1.037-0.643-0.926
			c-0.314,0.041-0.641-0.016-0.958,0.012c-0.559,0.048-0.741-0.157-0.773-0.739c-0.174-3.156-0.192-3.161,2.91-3.151
			c1.276,0.005,2.888-0.419,3.733,0.195c0.831,0.604,0.906,2.271,1.278,3.483c2.106,6.861,4.222,13.722,6.278,20.597
			c0.268,0.896,0.733,1.131,1.539,1.009c0.8-0.118,1.097,0.136,1.089,1.017c-0.027,2.895,0.013,2.895-2.933,2.895
			c-1.56,0-3.121-0.045-4.678,0.019c-0.771,0.03-1.005-0.236-0.904-0.953c0.108-0.774-0.378-1.843,0.217-2.264
			C75.003,82.383,76.003,82.677,76.884,82.677z M71.069,61.295c-1.108,4.051-2.129,7.821-3.183,11.582
			c-0.184,0.652-0.038,0.845,0.637,0.832c1.718-0.034,3.438-0.037,5.155,0c0.668,0.014,0.73-0.27,0.585-0.799
			C73.226,69.149,72.194,65.385,71.069,61.295z"/>
		<path fill-rule="evenodd" clip-rule="evenodd" fill="#FBFBFB" d="M81.662,44.718c-0.119,0.081-0.171,0.097-0.176,0.122
			c-0.139,0.731,0.321,1.955-0.224,2.118c-1.101,0.33-2.363,0.141-3.56,0.118c-0.414-0.008-0.292-0.408-0.293-0.661
			c-0.009-2.279,0.011-4.558-0.017-6.836c-0.008-0.565,0.236-0.653,0.714-0.643c1.119,0.024,2.242,0.052,3.357-0.01
			c0.636-0.035,0.776,0.243,0.919,0.783c1.048,3.967,6.488,5.395,9.456,2.5c2.201-2.149,1.574-5.529-1.291-6.603
			c-2.686-1.007-5.465-1.775-8.116-2.861c-4.153-1.699-6.06-5.231-4.98-9.154c0.884-3.215,3.199-5.126,6.341-5.92
			c3.485-0.881,6.768-0.636,9.174,2.654c0.098-0.202,0.164-0.292,0.185-0.39c0.133-0.634-0.358-1.684,0.277-1.843
			c1.088-0.274,2.299-0.096,3.455-0.043c0.271,0.012,0.187,0.39,0.188,0.613c0.005,1.959-0.014,3.918,0.013,5.877
			c0.009,0.543-0.2,0.698-0.7,0.67c-0.52-0.029-1.041-0.034-1.559-0.001c-1.445,0.091-2.562,0.114-3.235-1.751
			c-0.76-2.101-2.918-2.408-4.974-2.224c-2.121,0.189-3.617,1.453-4.088,3.302c-0.41,1.606,0.223,3.137,1.672,3.997
			c1.318,0.782,2.794,1.159,4.242,1.601c1.717,0.523,3.408,1.113,5.083,1.762c5.926,2.297,6.119,9.39,2.403,13.042
			c-2.947,2.898-7.952,3.719-11.684,1.933C83.191,46.362,82.493,45.436,81.662,44.718z"/>
		<path fill-rule="evenodd" clip-rule="evenodd" fill="#FBFBFB" d="M62.587,17.999c3.598,0,7.195,0.024,10.793-0.018
			c0.82-0.01,1.1,0.19,1.071,1.051c-0.063,2.036-0.045,4.077-0.006,6.114c0.014,0.695-0.131,1.014-0.909,0.975
			c-1.196-0.061-2.4-0.061-3.596,0c-0.772,0.04-0.923-0.263-0.917-0.966c0.009-0.945,0.432-2.173-0.175-2.765
			c-0.603-0.589-1.824-0.163-2.773-0.178c-1.878-0.029-3.757,0.02-5.635-0.023c-0.7-0.016-0.994,0.129-0.975,0.911
			c0.051,2.237,0.047,4.477,0.001,6.714c-0.016,0.745,0.214,0.952,0.947,0.94c2.638-0.041,5.277,0.008,7.915-0.032
			c0.708-0.011,0.947,0.135,0.946,0.906c-0.002,2.637,0.034,2.637-2.562,2.637c-2.117,0-4.236,0.021-6.354-0.014
			c-0.668-0.011-0.902,0.175-0.892,0.874c0.04,2.438,0.035,4.876,0.003,7.314c-0.009,0.643,0.213,0.827,0.83,0.809
			c0.868-0.024,2.081-0.292,2.525,0.158c0.595,0.604,0.108,1.813,0.206,2.756c0.073,0.7-0.114,0.967-0.896,0.957
			c-3.557-0.046-7.115-0.046-10.672,0c-0.781,0.01-0.951-0.25-0.9-0.957c0.065-0.915-0.297-2.075,0.142-2.689
			c0.477-0.667,1.707-0.219,2.601-0.214c0.733,0.004,0.834-0.287,0.833-0.918c-0.02-6.515-0.024-13.031,0.005-19.546
			c0.004-0.729-0.163-0.938-0.916-0.938c-2.669-0.001-2.623-0.035-2.678-2.758c-0.018-0.916,0.24-1.133,1.124-1.121
			C55.312,18.027,58.95,17.999,62.587,17.999z"/>
		<path fill-rule="evenodd" clip-rule="evenodd" fill="#120A0C" d="M90.294,77.243c0-1.275,0.026-2.553-0.012-3.826
			c-0.019-0.618,0.17-0.855,0.81-0.818c1.032,0.059,2.078-0.033,3.104,0.081c1.896,0.21,3.07,1.403,3.417,3.289
			c0.17,0.917,0.167,1.827-0.026,2.731c-0.34,1.582-1.233,2.668-2.873,2.975c-1.414,0.265-3.059,0.593-4.194-0.066
			c-0.742-0.434-0.141-2.15-0.221-3.29C90.272,77.961,90.294,77.602,90.294,77.243z M92.959,73.523
			c-2.097,0.036-1.788-0.309-1.813,1.862c-0.014,1.079-0.002,2.158-0.002,3.237c0,2.406,0,2.416,2.443,2.308
			c1.114-0.051,2.138-0.321,2.749-1.391C98.012,76.606,96.286,73.53,92.959,73.523z"/>
		<path fill-rule="evenodd" clip-rule="evenodd" fill="#120A0C" d="M90.294,64.907c0-1.075,0.026-2.152-0.011-3.227
			c-0.02-0.566,0.156-0.78,0.737-0.75c0.955,0.049,1.914-0.003,2.867,0.054c1.738,0.104,2.658,0.896,3.109,2.597
			c0.793,2.996-0.82,5.169-3.89,5.238c-2.813,0.063-2.813,0.063-2.813-2.716C90.294,65.704,90.294,65.306,90.294,64.907z
			 M91.144,64.806c0,0.798,0.021,1.598-0.008,2.392c-0.02,0.562,0.188,0.812,0.763,0.767c0.357-0.029,0.718-0.002,1.076-0.007
			c2.638-0.023,4.023-2.097,3.055-4.568c-0.524-1.338-2.331-2.082-4.344-1.555c-1.142,0.299-0.307,1.424-0.53,2.139
			C91.076,64.228,91.144,64.529,91.144,64.806z"/>
		<path fill-rule="evenodd" clip-rule="evenodd" fill="#170E10" d="M71.069,61.295c1.125,4.09,2.156,7.854,3.194,11.615
			c0.146,0.529,0.083,0.812-0.585,0.799c-1.718-0.037-3.438-0.034-5.155,0c-0.675,0.013-0.82-0.18-0.637-0.832
			C68.94,69.117,69.961,65.346,71.069,61.295z M71.081,64.712c-0.524,1.87-0.936,3.369-1.363,4.866
			c-0.95,3.316-0.953,3.314,2.507,3.206c0.04-0.001,0.08-0.005,0.119,0c0.652,0.077,0.882-0.183,0.705-0.829
			C72.418,69.654,71.797,67.349,71.081,64.712z"/>
		<path fill-rule="evenodd" clip-rule="evenodd" fill="#CC1041" d="M92.959,73.523c3.327,0.007,5.053,3.083,3.377,6.017
			c-0.611,1.069-1.635,1.34-2.749,1.391c-2.443,0.108-2.443,0.099-2.443-2.308c0-1.079-0.012-2.158,0.002-3.237
			C91.171,73.214,90.862,73.559,92.959,73.523z"/>
		<path fill-rule="evenodd" clip-rule="evenodd" fill="#CC1041" d="M91.144,64.806c0-0.277-0.067-0.578,0.012-0.833
			c0.224-0.715-0.611-1.84,0.53-2.139c2.013-0.527,3.819,0.217,4.344,1.555c0.969,2.472-0.417,4.545-3.055,4.568
			c-0.358,0.005-0.719-0.022-1.076,0.007c-0.574,0.046-0.782-0.205-0.763-0.767C91.164,66.404,91.144,65.604,91.144,64.806z"/>
		<path fill-rule="evenodd" clip-rule="evenodd" fill="#CC1041" d="M71.081,64.712c0.716,2.637,1.337,4.941,1.968,7.243
			c0.177,0.646-0.053,0.906-0.705,0.829c-0.039-0.005-0.079-0.001-0.119,0c-3.46,0.108-3.457,0.11-2.507-3.206
			C70.146,68.082,70.557,66.583,71.081,64.712z"/>
	</g>
</g>
</svg>
