<?xml version="1.0" encoding="utf-8"?>
<!-- Generator: Adobe Illustrator 16.0.0, SVG Export Plug-In . SVG Version: 6.00 Build 0)  -->
<!DOCTYPE svg PUBLIC "-//W3C//DTD SVG 1.1//EN" "http://www.w3.org/Graphics/SVG/1.1/DTD/svg11.dtd">
<svg version="1.1" xmlns="http://www.w3.org/2000/svg" xmlns:xlink="http://www.w3.org/1999/xlink" x="0px" y="0px"
	 width="283.465px" height="283.465px" viewBox="0 0 283.465 283.465" enable-background="new 0 0 283.465 283.465"
	 xml:space="preserve">
<g id="Layer_3" display="none">
	<rect x="-12.333" y="-8.333" display="inline" fill="#700D2F" width="314.667" height="302"/>
</g>
<g id="Layer_2">
	<rect x="105.224" y="73.563" fill="#FFFFFF" width="69.836" height="33.837"/>
	<rect x="122.25" y="103.5" fill="#FFFFFF" width="35.25" height="93"/>
	<rect x="105.223" y="186.895" fill="#FFFFFF" width="69.837" height="33.838"/>
</g>
<g id="Lager_1">
	<g>
		<g>
			<path d="M176.06,71.563l-71.836,0h-1v1v35.837v1h1h16.334v16.414v0.722l-0.002,58.358h-16.333h-1v1v35.838v1h1h71.837h1v-1
				v-35.838v-1h-1h-16.334l0.001-35.352l0.001-40.142h16.332h1v-1V72.563v-1H176.06z M122.558,108.401v-1h-1h-16.334V73.563
				l69.836,0v33.838h-16.332h-1v1l-0.001,41.142l-0.001,36.352v1h1h16.334v33.838h-69.837v-33.838h16.333h1v-1L122.558,108.401z"/>
			<polygon fill="#71002E" stroke="#000000" points="154.476,168.48 154.476,104.149 171.808,104.149 171.808,76.815 
				140.808,76.814 132.475,76.814 108.476,76.815 108.476,104.149 125.81,104.149 125.81,125.814 125.808,125.814 125.808,190.146 
				108.475,190.146 108.475,217.48 139.475,217.48 147.808,217.48 171.808,217.48 171.808,190.146 154.474,190.146 154.474,168.48 
							"/>
			<path fill="#FFFFFF" d="M198.183,148.898c-0.375-13.75-9.957-21.084-14.123-23.667c-4.893-3.032-12.771-6.034-32.127-4.958
				c-22.5,1.25-58.625,14.5-84.125,33.875c-1.632,1.24-3.875,3.5-3.625,4s0,1.625,3.5,2.625s8.5,1.375,8.5,1.375
				s4.625,0.25,7.125-0.25s4.594-1.805,6-2.875c2.625-2,17.125-12.375,30.375-11.625c2.998,0.17,6.125,0.5,8.625,3.5s3,9,2.75,12.25
				s-0.125,3.125-1.125,4.25c-1,1.123-5.332,2.623-8.207,4.08c-2.057,1.043-3.25,1.668-3,3.418c0.141,0.99,4.082,2.25,8.332,2.5
				c3.881,0.229,11.584,0.416,14.418,0.166c2.24-0.197,3.916-0.916,3.916-2.416c0-2.334-0.949-3.793-1.25-5.834
				c-0.416-2.832-0.666-6.748-0.416-9.498c0.137-1.518,0.266-2.982,0.633-4.453c0.02,0.023,0.033,0.037,0.033,0.037
				s5.916,6.352,17.25,6.25c9.334-0.084,12.418-2.418,12.418-2.418l-0.098,0.072c1.883,1.357,3.221,2.096,3.221,2.096
				s0.375,1.791,0.125,3.166c-4.75,1.375-8.541,5.123-8.666,6.748c-0.08,1.059-0.084,1.625,0.416,2.5
				c0.666,1.168,4.223,1.248,6.527,1.334c3.375,0.125,12.848,0.125,16.098,0s4.656-3.594,5.625-6.5
				C198.558,164.898,198.47,159.395,198.183,148.898z"/>
			<g>
				<path d="M162.099,144.647c2.549,10.45,14.21,17.125,14.722,17.407l-0.372-0.504c0.004,0.017,0.342,1.669,0.121,2.879
					l0.486-0.572c-4.734,1.686-8.671,5.457-9.377,7.924c-0.469,1.641,1.559,2.521,2.647,2.994c1.576,0.684,5.523,1.244,6.487,1.279
					c3.399,0.127,11.578-0.031,14.898-0.158c4.022-0.154,5.509-4.615,6.308-7.012c1.289-3.869,1.199-9.521,0.913-20.008
					c-0.384-14.053-10.253-21.664-14.478-24.283c-4.742-2.939-12.729-6.172-32.564-5.07c-20.791,1.155-57.485,13.473-84.537,34.027
					c-0.187,0.142-4.562,3.49-3.842,4.932c0.01,0.021,0.03,0.093,0.046,0.145c0.269,0.922,0.815,1.98,3.919,2.867
					c3.533,1.009,8.442,1.386,8.65,1.401c0.208,0.011,4.765,0.25,7.328-0.263c2.115-0.423,4.237-1.438,6.307-3.014
					c1.646-1.254,16.471-12.232,29.879-11.473c2.858,0.162,6.748,1.337,9.091,4.148l-0.055-0.074
					c1.42,2.209,1.867,7.828,1.633,10.869c-0.211,2.749-0.435,2.996-1.176,3.814l-0.22,0.245c-0.522,0.587-2.351,1.368-4.119,2.122
					c-1.148,0.488-2.336,0.996-3.408,1.539c-2.085,1.057-3.732,1.891-3.403,4.193c0.282,1.988,6.206,2.977,9.03,3.143
					c4.011,0.236,11.664,0.418,14.527,0.164c4.003-0.352,4.601-2.133,4.601-3.164c0-1.504-0.359-2.656-0.707-3.77
					c-0.225-0.723-0.438-1.406-0.551-2.172c-0.387-2.635-0.664-6.54-0.411-9.323l0.031-0.347c0.228-2.531-0.316-5.24,1.262-7.721
					l-0.507-0.486c-1.774,2.788-2.005,5.355-2.249,8.072l-0.031,0.346c-0.264,2.906,0.021,6.954,0.421,9.678
					c0.131,0.883,0.371,1.654,0.604,2.4c0.328,1.053,0.639,2.047,0.639,3.322c0,1.25-2.26,1.584-3.231,1.67
					c-2.755,0.244-10.437,0.061-14.309-0.168c-4.145-0.244-7.315-1.398-7.66-1.945c0,0,0.019,0.031,0.026,0.088
					c-0.16-1.123,0.349-1.504,2.597-2.643c1.029-0.521,2.193-1.018,3.319-1.498c2.096-0.895,3.905-1.666,4.651-2.506l0.211-0.234
					c0.973-1.074,1.32-1.604,1.56-4.705c0.256-3.33-0.25-9.281-1.867-11.797l-0.025-0.038l-0.029-0.036
					c-2.65-3.18-6.985-4.506-10.159-4.686c-13.945-0.789-29.181,10.488-30.871,11.777c-1.888,1.438-3.803,2.358-5.693,2.736
					c-2.377,0.476-6.892,0.238-6.938,0.236c-0.033-0.002-4.95-0.381-8.334-1.348c-2.567-0.732-2.771-1.428-2.892-1.844
					c-0.035-0.121-0.075-0.258-0.144-0.395c0.077,0.154,0.062,0.29,0.05,0.329c0.134-0.427,1.725-2.155,3.358-3.397
					c26.813-20.373,63.143-32.58,83.713-33.723c19.417-1.079,27.135,2.023,31.689,4.847c4.019,2.491,13.405,9.725,13.769,23.049
					c0.282,10.312,0.373,15.863-0.837,19.492c-1.016,3.051-2.318,5.887-4.942,5.988c-3.3,0.127-11.42,0.283-14.785,0.158
					c-1.003-0.037-4.689-0.613-5.912-1.143c-1.694-0.736-1.876-1.08-1.836-1.221c0.522-1.822,3.985-5.338,8.439-6.923l0.408-0.146
					l0.078-0.427c0.272-1.502-0.112-3.376-0.129-3.454l-0.071-0.338l-0.301-0.166c-0.12-0.065-12.555-6.539-14.946-16.343
					L162.099,144.647z"/>
			</g>
			<g>
				<path d="M143.843,155.908c0.251,0.27,6.273,6.593,17.806,6.489c9.473-0.085,12.729-2.467,12.863-2.568l-0.904-1.196l0.005-0.004
					c-0.03,0.021-3.1,2.099-11.978,2.269c-11.044,0.212-16.96-6.365-17.018-6.427L143.843,155.908z"/>
			</g>
		</g>
		<g>
			<path fill="#FFFFFF" d="M19.412,142.3c-0.112-2.314,1.253-4.034,3.664-4.034c1.993,0,3.567,1.157,3.567,3.278
				c0,2.009-1.35,3.021-2.764,3.904c-1.431,0.868-2.925,1.592-3.198,3.006h5.85v1.205h-7.44c0.225-2.699,1.591-3.664,3.197-4.66
				c1.929-1.189,2.909-1.896,2.909-3.471c0-1.237-0.996-2.057-2.202-2.057c-1.59,0-2.266,1.462-2.217,2.829H19.412z"/>
			<path fill="#FFFFFF" d="M32.911,138.267c3.567,0,3.792,3.278,3.792,5.802c0,2.506-0.225,5.785-3.792,5.785
				c-3.568,0-3.793-3.279-3.793-5.785C29.118,141.545,29.343,138.267,32.911,138.267z M32.911,148.648
				c2.33,0,2.346-2.893,2.346-4.597c0-1.688-0.016-4.58-2.346-4.58s-2.347,2.893-2.347,4.58
				C30.564,145.756,30.581,148.648,32.911,148.648z"/>
		</g>
		<g>
			<path fill="#FFFFFF" d="M253.173,138.267c3.567,0,3.792,3.278,3.792,5.802c0,2.506-0.225,5.785-3.792,5.785
				c-3.568,0-3.793-3.279-3.793-5.785C249.38,141.545,249.604,138.267,253.173,138.267z M253.173,148.648
				c2.33,0,2.346-2.893,2.346-4.597c0-1.688-0.016-4.58-2.346-4.58s-2.347,2.893-2.347,4.58
				C250.826,145.756,250.843,148.648,253.173,148.648z"/>
			<path fill="#FFFFFF" d="M259.15,142.3c-0.112-2.314,1.253-4.034,3.664-4.034c1.993,0,3.567,1.157,3.567,3.278
				c0,2.009-1.35,3.021-2.764,3.904c-1.431,0.868-2.925,1.592-3.198,3.006h5.85v1.205h-7.44c0.225-2.699,1.591-3.664,3.197-4.66
				c1.929-1.189,2.909-1.896,2.909-3.471c0-1.237-0.996-2.057-2.202-2.057c-1.59,0-2.266,1.462-2.217,2.829H259.15z"/>
		</g>
		<g>
			<path fill="#FFFFFF" d="M20.716,108.938l0.449-1.459l10.966,3.378l-0.449,1.459L20.716,108.938z"/>
			<path fill="#FFFFFF" d="M24.628,97.646l0.667-1.48l10.967-1.683l0.014-0.029l-8.483-3.825l0.595-1.318l10.461,4.717l-0.688,1.524
				l-10.859,1.679l-0.013,0.029l8.395,3.786l-0.595,1.319L24.628,97.646z"/>
			<path fill="#FFFFFF" d="M33.532,79.951l2.153-3.296c1.934-2.96,4.495-3.648,7.59-1.626c3.215,2.101,4.108,4.7,2.017,7.902
				l-2.154,3.296L33.532,79.951z M42.896,84.246l1.39-2.126c0.571-0.874,1.867-3.387-1.671-5.699
				c-2.287-1.495-4.228-1.552-5.766,0.802l-1.406,2.152L42.896,84.246z"/>
			<path fill="#FFFFFF" d="M56.471,62.156c2.149,1.936,2.176,4.188,0.261,6.313c-1.979,2.197-4.166,2.584-6.435,0.541l-5.445-4.905
				l1.021-1.134l5.445,4.905c1.505,1.355,3.103,1.238,4.458-0.267c1.291-1.433,1.177-2.963-0.328-4.318l-5.444-4.905l1.021-1.134
				L56.471,62.156z"/>
			<path fill="#FFFFFF" d="M65.964,48.365c-1.178-1.154-2.471-1.007-3.688-0.007c-0.993,0.816-1.691,1.993-0.742,3.147
				c0.897,1.093,2.446,0.091,4.139-0.759c1.682-0.84,3.505-1.506,4.934,0.232c1.551,1.887,0.322,4.165-1.292,5.491
				c-1.986,1.632-4.459,2.041-6.234-0.12l1.118-0.918c1.224,1.49,2.996,1.116,4.337,0.014c1.068-0.877,1.973-2.182,0.922-3.461
				c-1-1.217-2.589-0.265-4.26,0.587s-3.436,1.616-4.771-0.011c-1.479-1.801-0.53-3.912,1.084-5.238
				c1.813-1.489,3.896-1.765,5.571,0.124L65.964,48.365z"/>
			<path fill="#FFFFFF" d="M76.342,38.623l-3.267,1.991l-0.669-1.098l7.836-4.775l0.669,1.098l-3.266,1.99l5.302,8.701l-1.304,0.794
				L76.342,38.623z"/>
			<path fill="#FFFFFF" d="M88.574,30.477l4.966-2.121c1.98-0.846,3.668-0.291,4.388,1.395c0.543,1.271,0.43,2.56-0.69,3.458
				l0.013,0.03c1.328-0.288,1.964,0.507,2.51,1.497c0.53,0.997,0.963,2.175,1.863,2.646l-1.566,0.669
				c-0.582-0.258-0.846-1.491-1.495-2.438c-0.59-0.971-1.213-1.736-2.573-1.155l-3.429,1.464l1.926,4.508l-1.404,0.6L88.574,30.477z
				 M94.981,33.49c1.315-0.562,2.293-1.381,1.637-2.918c-0.441-1.035-1.331-1.563-2.646-1.001l-3.488,1.489l1.571,3.68L94.981,33.49
				z"/>
			<path fill="#FFFFFF" d="M106.261,23.845l1.467-0.424l3.187,11.023l-1.467,0.424L106.261,23.845z"/>
			<path fill="#FFFFFF" d="M117.762,20.975l7.816-1.298l0.211,1.269l-6.311,1.048l0.598,3.599l5.882-0.977l0.211,1.268l-5.882,0.977
				l0.65,3.916l6.357-1.056l0.211,1.269l-7.863,1.306L117.762,20.975z"/>
			<path fill="#FFFFFF" d="M135.424,18.798l1.525-0.043l0.291,10.185l6.072-0.173l0.036,1.285l-7.599,0.217L135.424,18.798z"/>
			<path fill="#FFFFFF" d="M152.288,19l1.52,0.157l-1.046,10.135l6.043,0.623l-0.132,1.279l-7.562-0.78L152.288,19z"/>
			<path fill="#FFFFFF" d="M180.647,24.489l7.482,2.606l-0.423,1.214l-6.04-2.104l-1.2,3.445l5.631,1.961l-0.424,1.214l-5.63-1.961
				l-1.306,3.749l6.086,2.12l-0.423,1.214l-7.528-2.622L180.647,24.489z"/>
			<path fill="#FFFFFF" d="M197.303,31.073l1.354,0.706l-2.645,5.073l7.804-2.384l1.753,0.914l-6.429,1.868l1.295,8.396l-1.71-0.892
				l-0.995-7.061l-2.521,0.698l-1.856,3.562l-1.354-0.706L197.303,31.073z"/>
			<path fill="#FFFFFF" d="M217.773,43.155c2.936,2.166,2.707,5.59,0.856,8.1s-5.055,3.741-7.991,1.576s-2.707-5.59-0.856-8.1
				S214.837,40.99,217.773,43.155z M211.401,51.796c2.251,1.66,4.626,0.416,5.999-1.447c1.374-1.863,1.86-4.499-0.391-6.159
				c-2.25-1.66-4.625-0.416-5.999,1.447C209.638,47.5,209.151,50.136,211.401,51.796z"/>
			<path fill="#FFFFFF" d="M229.611,53.304l1.139,1.156l-2.392,10.834l0.022,0.023l6.631-6.528l1.015,1.031l-8.177,8.05
				l-1.173-1.191l2.357-10.732l-0.022-0.023l-6.562,6.46l-1.015-1.031L229.611,53.304z"/>
			<path fill="#FFFFFF" d="M245.979,71.808c2.119,2.97,0.837,6.154-1.701,7.965c-2.538,1.811-5.966,1.986-8.085-0.983
				c-2.118-2.97-0.837-6.155,1.701-7.965S243.86,68.838,245.979,71.808z M237.24,78.042c1.624,2.276,4.268,1.831,6.151,0.487
				c1.884-1.344,3.165-3.699,1.541-5.976s-4.268-1.832-6.151-0.487C236.897,73.411,235.616,75.766,237.24,78.042z"/>
			<path fill="#FFFFFF" d="M254.214,85.284l0.909,1.881l-7.107,7.453l10.263-0.928l0.909,1.881l-10.331,4.995l-0.629-1.302
				l8.594-4.155l-0.014-0.029l-10.154,0.929l-0.566-1.172l7.034-7.382l-0.015-0.029l-8.594,4.155l-0.63-1.302L254.214,85.284z"/>
			<path fill="#FFFFFF" d="M262.837,105.529l0.473,1.452l-10.909,3.556l-0.474-1.452L262.837,105.529z"/>
		</g>
		<g>
			<path fill="#FFFFFF" d="M81.051,235.432l1.267,0.852l-5.684,8.455l5.041,3.389l-0.718,1.066l-6.308-4.24L81.051,235.432z"/>
			<path fill="#FFFFFF" d="M142.594,257.152l-3.824-0.061l0.021-1.285l9.175,0.148l-0.021,1.285l-3.824-0.062l-0.165,10.188
				l-1.526-0.025L142.594,257.152z"/>
			<path fill="#FFFFFF" d="M200.751,240.936l1.284-0.826l2.668,4.15l5.083-3.268l-2.668-4.15l1.284-0.824l6.204,9.652l-1.284,0.824
				l-2.842-4.42l-5.083,3.268l2.842,4.42l-1.284,0.826L200.751,240.936z"/>
		</g>
	</g>
</g>
</svg>
