<?xml version="1.0" encoding="utf-8"?>
<!-- Generator: Adobe Illustrator 16.0.0, SVG Export Plug-In . SVG Version: 6.00 Build 0)  -->
<!DOCTYPE svg PUBLIC "-//W3C//DTD SVG 1.1//EN" "http://www.w3.org/Graphics/SVG/1.1/DTD/svg11.dtd">
<svg version="1.1"
	 id="svg2" xmlns:dc="http://purl.org/dc/elements/1.1/" xmlns:cc="http://creativecommons.org/ns#" xmlns:rdf="http://www.w3.org/1999/02/22-rdf-syntax-ns#" xmlns:svg="http://www.w3.org/2000/svg"
	 xmlns="http://www.w3.org/2000/svg" xmlns:xlink="http://www.w3.org/1999/xlink" x="0px" y="0px" width="50px" height="50px"
	 viewBox="40.45 -3.683 50 50" enable-background="new 40.45 -3.683 50 50" xml:space="preserve">
<g id="g10" transform="matrix(1.25,0,0,-1.25,0,71.3)">
	<g id="g12" transform="scale(0.1,0.1)">
		<path id="path14" fill="#FFFFFF" d="M523.85,240.279c-53.047,0-99.945,26.797-127.906,67.551l255.805-0.008
			C623.787,267.076,576.896,240.279,523.85,240.279z M368.85,395.275c0,81.477,63.195,148.461,143.133,154.539l-127.898-221.52
			C374.326,348.58,368.85,371.302,368.85,395.275z M594.021,408.834c21.414-37.098,40.789-70.652,46.773-81.012
			c-7.312,0-24.641,0-46.773,0V408.834z M453.678,327.822c-22.133,0-39.461,0.008-46.766,0.008
			c5.977,10.355,25.352,43.906,46.766,81V327.822z M574.021,328.037H473.678V428.38h100.344V328.037z M523.857,530.373
			c6.023-10.449,25.695-44.512,47.336-81.992h-94.68C498.154,485.861,517.818,519.923,523.857,530.373z M678.85,395.275
			c0-23.973-5.484-46.695-15.234-66.977L535.725,549.814C615.662,543.728,678.85,476.744,678.85,395.275z M675.412,307.869
			c14.891,25.73,23.438,55.59,23.438,87.406c0,96.469-78.469,174.949-174.93,174.988l-0.062,0.109l-0.07-0.109
			c-96.461-0.027-174.938-78.512-174.938-174.988c0-31.816,8.547-61.676,23.438-87.406l-0.016-0.039h0.039
			c30.297-52.293,86.875-87.551,151.539-87.551c64.656,0,121.227,35.25,151.531,87.543h0.047L675.412,307.869"/>
		<path id="path16" fill="#FFFFFF" d="M18.896,87.732c1.602,0.203,4.305,0.594,5.805,0.797c2.602,0.5,3.898,1.203,4.297,3.398
			c0.203,1.398,0.898,8.203,0.898,22.602v10.203c0,18.094-0.094,21.594-0.5,21.594h-8.102c-9.398,0-13.797-1.594-14.594-2.094
			c-1.203-0.906-1.898-2.703-3.305-6.797c0-0.305-0.5-0.305-0.898-0.109c-0.797,0.406-2.203,1.703-2.5,2
			c1.398,2.906,3.398,7.406,5.703,14.906c0.398,0.094,1.094,0,1.898-0.203c0.703-0.203,0.797-0.297,0.898-0.703
			c0-1.797,0.195-2.602,0.898-2.797c0.805-0.203,2.305-0.297,4.602-0.398c3-0.102,7.797-0.102,17.102-0.102
			c10.898,0,19.305,0,25.094,0.297c2.906,0.109,4.609,0.297,5.602,0.609c0.602,0.188,1.203,0.992,1.805,2.797
			c0.094,0.406,0.195,0.406,0.5,0.406c0.5,0,1.797-0.406,2.602-0.914c0.195-0.102,0.195-0.492,0-1.297
			c-2-5.195-2.102-7.602-2.602-13.703c0-0.492-0.305-0.789-1.102-0.789c-0.602,0-1.297,0.094-1.805,0.195
			c-0.297,0.102-0.492,0.398-0.492,0.594c0,0.805,0.195,4.305,0.195,5.211c0,0.703-0.398,1.5-1.602,1.891
			c-0.898,0.398-5.695,1-12.797,1h-6.5c-0.898,0-1.305-0.602-1.398-2.594c0-1.703-0.297-6.602-0.297-20v-10
			c0-14.406,0.297-18.703,0.695-20.508c0.297-1.695,1-2.992,2.195-3.594c1.805-1.008,6.305-1.601,8.609-1.805
			c0.602,0,0.695-0.094,0.602-0.391l-0.406-2c-0.102-0.406-0.195-0.609-0.898-0.609c-1.195,0-9.805,0.305-14.703,0.305
			c-5.195,0-13.102-0.398-13.898-0.398s-1.203,0.297-1.297,0.797L18.896,87.732"/>
		<path id="path18" fill="#FFFFFF" d="M107.896,119.826c4.5,0,7.898,0.109,10.398,0.305c6,0.398,6.508,0.805,7.805,6.695
			c0.398,0.305,2.703,0.5,3.195,0.406c-0.195-2.906-0.797-7.5-0.797-10.594c0.102-3.414,0.398-6.203,0.703-9.109
			c-0.805-0.203-1.602-0.297-2.305-0.297c-0.5-0.102-0.703,0.203-0.898,0.594c-0.398,1.102-0.898,2.703-1.195,3.906
			c-0.602,2.695-1.805,3.594-5.805,3.891c-2.203,0.203-5.5,0.203-10.602,0.203c-5,0-6-0.102-6.602-0.203
			c-0.398-0.094-0.695-0.188-1-0.594c-0.297-0.602-0.898-4.094-0.898-12.297c0-7.297,0-10,1-11.609
			c1.406-1.891,4.898-2.391,13.102-2.391c11.703,0,17.305,1.094,20.398,11.703c0.406,0.094,1.398,0,2.398-0.109
			c0.305-0.195,0.305-0.297,0.305-0.797c-0.203-4.594-1.805-11-3.102-13.906c-0.5-0.594-0.797-0.797-1.305-0.797
			c-0.695,0-1.391,0-4.695,0.109c-3,0.094-10,0.195-18.305,0.195c-7.992,0-15.898-0.398-23.898-0.703
			c-0.195,0.102-0.297,2.211-0.195,3.008c0,0.195,0.297,0.391,0.398,0.391c4.602,0.797,5,1.5,5.102,3
			c0.195,1.5,0.695,7.906,0.695,18.102v17.305c0,13.297-0.602,17.695-0.695,18.297c-0.102,0.602-0.305,1.094-1.297,1.297
			c-1.008,0.406-2.906,0.703-5.305,1.305c-0.102,0.102-0.102,0.102-0.102,0.398l0.203,2.297c0,0.406,0,0.5,0.5,0.5h3.5
			c3.102,0,6.898-0.195,13-0.297h9.703c6.094,0,13.391,0.5,18.391,0.594c1.305,0,1.906-0.188,2.406-0.492
			c0.898-0.602,0.898-0.602,0.5-2.398c-0.805-4.406-0.898-10.203-0.898-12.797c-2.602,0-3.008,0.297-3.102,0.891
			c-1.406,7.203-2.102,10.812-9.906,10.812h-6.898c-5.898,0-9.195-0.211-10.297-0.516c-1.305-0.398-1.5-1.391-1.5-3.688
			c0-7,0.102-14,0.195-21.008c0-0.898,0.602-1.602,1.305-1.602H107.896"/>
		<path id="path20" fill="#FFFFFF" d="M162.396,127.935c0,15.188-0.5,16.891-2,17.789c-1.195,0.914-2.797,1.102-5.594,1.305
			c0,0.797,0.398,2.797,0.898,3.102c3.297,0,6.695-0.102,10.094-0.102c7.102,0.102,10.398,0.406,11.398,0.406
			c0.602,0,0.805-0.203,0.906-0.406c0.195-0.398,0.398-2,0.297-2.594c-3.195-0.406-4.703-0.797-6.203-1.312
			c-1.195-0.594-1.492-2.898-1.492-12.297v-13.203c0-0.992,0.094-1.195,0.602-1.195c0.695,0,2.195,1.297,4.797,3.305
			c5.797,4.797,17,14.398,23.594,21c1.609,1.5,1.609,2.5,0.906,2.5c-1.703,0.094-3.406,0.297-5.703,0.5l-0.094,2.695
			c0.094,0.508,0.195,0.602,0.594,0.703c9.898-0.102,21.203,0.305,21.906,0.305c0.492,0,0.594-0.109,0.492-0.703
			c-0.297-2-0.398-2.406-0.898-2.406c-5.898-0.898-8.297-2.695-11.195-4.797c-5.805-4.203-12.008-9-24.602-20
			c-0.602-0.5-0.898-1.297-0.305-1.906c6.102-6.594,17.305-15.992,25.805-23.891c5.594-5.203,8.398-7.305,10.5-7.805
			c1.5-0.305,2.898-0.602,3.898-0.805c0.797-0.188,1.102-0.492,1-1.195l-0.805-2.102c-6.094,0.305-11.695,0.406-23.297,0.305
			l0.398,2.992c0.398,0.203,2,0.609,3.008,0.805c0.695,0.102,1,0.703,0.094,1.508c-8.5,8-22.898,21.094-25.398,23.594
			c-2.898,2.797-4.297,3-4.695,3c-0.305,0-0.602-0.203-0.602-1.5v-8.891c0-13.609,0.695-15.812,1.195-16.406
			c0.898-1.406,3.203-1.609,7.102-2.008c0.203,0,0.398-0.289,0.398-0.695l-0.297-2.703c-3.305,0.109-5.805,0.305-13.305,0.305
			c-3.195,0-9.797-0.305-10.992-0.305c-0.203,0.406,0.094,2.906,0.297,3.109c1.297,0.289,3,0.391,4.797,0.891
			c2,0.406,2.5,1.703,2.5,14.109V127.935"/>
		<path id="path22" fill="#FFFFFF" d="M234.998,150.435c4.594-0.203,6.797-0.406,13.898-0.406c0.602,0,1.102-0.094,1.297-0.297
			c0.406-0.305,0.898-1.109,1.203-1.797c0.695-1.297,4.203-5.906,6.594-8.109c6-6.094,20.602-20.594,40.508-39.391
			c0.094,3.188,0.195,12.195,0.195,19.594c0,10.406-0.102,15.797-0.5,20.906c-0.203,1.695-0.398,4.195-2.594,4.891
			c-1.102,0.406-3.805,0.703-5.906,0.906c-0.297,0.094-0.5,0.195-0.5,0.5l-0.203,2.797c3.805,0,7.609,0,11.305,0
			c3.898,0,7.898,0.297,11,0.406c0.5,0,0.797-0.203,0.898-0.5l0.602-2.109c-3.602-0.797-5-1.188-6.602-2.203
			c-1.898-1.094-2.5-4.297-3-17.891c-0.203-9-0.297-15.5-0.297-28.906c0-6.391,0.297-12.297,0.297-14
			c-0.094-0.594-0.695-1.094-2-1.602c-0.5-0.195-0.898-0.195-1.398,0.508c-5.898,8.703-15.203,18.094-25.695,28.5
			c-8.305,8.297-16.203,16.094-24.406,24.297c-0.297-5.594-0.5-12.703-0.5-18.305c0-9.086,0-22.602,1.203-26.398
			c0.797-2.297,3.898-3.094,8-3.891l0.703-2.406c0.094-0.297-0.508-0.797-0.805-0.797c-4.195,0-8.602,0.398-12.695,0.398
			c-3.508,0-6.5-0.305-8.203-0.305c-0.203,1-0.5,2-0.797,2.805c6.297,1.695,6.695,2.695,7.195,5.992
			c0.305,2.5,1.203,11.703,1.203,25.805v11.102c0,10.297-0.203,12-1.805,13.5c-1.594,1.695-3.195,2.609-7.398,3.102
			c-0.602,0.195-0.797,0.305-0.797,0.695V150.435"/>
		<path id="path24" fill="#FFFFFF" d="M361.49,148.224c-4.805,0-9.805-1.797-14.898-7.289c-5.305-6.109-6.805-15.211-6.805-21.508
			c0-9.297,3.305-17.398,8.805-23c6.602-6.695,12.898-9.195,19.594-9.195c10.305,0,21.305,8.891,21.305,27.594
			c0,9-2.398,17.906-9.297,25.406c-4,4.297-10.297,7.992-18.602,7.992H361.49z M364.787,151.826
			c18.102,0,34.602-14.391,34.602-32.688c0-12.406-6-21.508-11.297-26.703c-6.898-6.812-15.898-9.109-21.297-9.109
			c-10.602,0-22.102,4.797-28.906,12.398c-5.102,5.602-8.398,14.508-8.398,22.711c0,8.391,3.398,17.289,11.195,24.297
			c6.305,5.703,15.305,9.094,24.008,9.094H364.787"/>
		<path id="path26" fill="#FFFFFF" d="M465.795,101.029c0.398,0,2.195-0.5,2.695-0.797c0.398-0.406,0.398-0.703,0.305-1.094
			c-1.203-4.109-2.305-8.414-3-12.711c-0.195-0.992-0.898-1.398-1.703-1.492c-0.992-0.109-2.102-0.109-6.297-0.109
			c-4.102,0-9,0.305-25.898,0.305c-5.406,0-10.305-0.5-11.703-0.602c-1.102-0.102-1.703-0.102-1.898-0.102
			c-0.305,0.398-0.898,2.5-0.797,3.102c4.898,0.594,7.398,1.5,8.195,4.5c0.398,1.406,0.695,5.102,0.695,15.297v20.5
			c0,8.5-0.195,13.906-0.492,16.102c-0.297,2.305-1.102,2.711-8.203,2.602c-0.297,0-0.602,0.602-0.398,1.203l0.805,1.797
			c0.094,0.5,0.195,0.5,0.391,0.5c3,0,6.102-0.094,9.305,0c5.102,0.102,10.398,0.406,15.602,0.594
			c0.398-0.297,0.695-2.188,0.695-2.992c-5.992-0.703-8.398-1.203-8.898-5.305c-0.297-2.898-0.602-9.5-0.5-17.594l0.102-12.203
			c0.102-15.797,0.203-18.906,0.297-20.703c0.102-1.391,0.703-2.195,1.898-2.5c1.703-0.594,4.805-0.797,9.305-0.797
			c6.602,0,13,0.203,16.297,5.297c1.102,1.703,1.898,3.609,2.602,6.703c0.102,0.406,0.203,0.5,0.5,0.5H465.795"/>
		<path id="path28" fill="#FFFFFF" d="M516.389,148.224c-4.789,0-9.789-1.797-14.898-7.289c-5.297-6.109-6.797-15.211-6.797-21.508
			c0-9.297,3.297-17.398,8.797-23c6.602-6.695,12.898-9.195,19.602-9.195c10.305,0,21.297,8.891,21.297,27.594
			c0,9-2.383,17.906-9.297,25.406c-4,4.297-10.305,7.992-18.602,7.992H516.389z M519.693,151.826
			c18.086,0,34.594-14.391,34.594-32.688c0-12.406-5.992-21.508-11.289-26.703c-6.914-6.812-15.906-9.109-21.305-9.109
			c-10.602,0-22.102,4.797-28.898,12.398c-5.102,5.602-8.398,14.508-8.398,22.711c0,8.391,3.398,17.289,11.195,24.297
			c6.305,5.703,15.305,9.094,24,9.094H519.693"/>
		<path id="path30" fill="#FFFFFF" d="M575.201,118.123c0,10.203,3.789,17.906,10,23.609c4.305,3.992,9.305,6.203,16.102,8.094
			c5.992,1.703,12.398,2,15.602,2s9-0.594,12.789-1.797c0.508-0.203,0.906-0.297,1,0l0.898,1.5c0.219,0.297,0.312,0.297,1.109,0.297
			l1.992-0.094c0.203,0,0.508-0.203,0.508-0.703c0.297-6.5,0.906-11.602,1.391-14.102c0.219-1.102,0.219-1.992,0.117-2.297
			c-0.219-0.203-0.406-0.305-1.109-0.305h-1.391c-0.312,0-0.703,0.102-1.016,0.805c-2.695,7.195-9.203,13.094-20.391,13.094
			c-5.609,0-11.5-1.398-17.109-6.297c-4.492-4.102-10.297-11.898-10.297-24.398c0-6.594,1.797-14.797,8.5-21.297
			c7.695-7.5,18.617-8.703,23.805-8.703c2.992,0,6.898,1.094,8.406,2.297c1.789,1.297,2.695,5.898,2.695,13
			c0,9.609-0.297,10.797-3.789,11.406c-1.023,0.195-5.32,0.703-6.406,0.898c-0.414,0.195-0.906,0.398-1.094,0.695
			c-0.32,0.5-0.414,1.305-0.508,1.906c0,0.492,0.188,0.797,0.508,0.797c5.68,0,10.188-0.406,14.492-0.406
			c5.289,0,8.688,0.406,10.289,0.406c0.219-0.203,0-3.297-0.195-3.898c-1.094-0.102-2.305-0.305-3.906-0.492
			c-0.195-0.812-0.68-7.906-0.68-24.812c0-1.891-0.508-2.594-1.508-3.5c-0.898-0.797-2.398-0.891-2.812-0.891
			c-2.289,0-3.883,0-7.891-0.305c-3.594-0.305-6.695-0.602-10.703-0.602c-13.109,0-22.594,3.406-29.586,10
			c-5.805,5.398-9.812,13.5-9.812,24V118.123"/>
		<path id="path32" fill="#FFFFFF" d="M667.49,127.935c0,15.188-0.508,16.891-1.992,17.789c-1.211,0.914-2.812,1.102-5.602,1.305
			c0,0.797,0.383,2.797,0.898,3.102c3.297,0,6.695-0.102,10.094-0.102c7.109,0.102,10.414,0.406,11.406,0.406
			c0.602,0,0.805-0.203,0.898-0.406c0.195-0.398,0.391-2,0.289-2.594c-3.203-0.406-4.68-0.797-6.188-1.312
			c-1.211-0.594-1.5-2.898-1.5-12.297v-13.203c0-0.992,0.094-1.195,0.602-1.195c0.703,0,2.188,1.297,4.789,3.305
			c5.797,4.797,17.008,14.398,23.609,21c1.602,1.5,1.602,2.5,0.898,2.5c-1.703,0.094-3.398,0.297-5.703,0.5l-0.094,2.695
			c0.094,0.508,0.195,0.602,0.602,0.703c9.883-0.102,21.188,0.305,21.898,0.305c0.484,0,0.602-0.109,0.484-0.703
			c-0.289-2-0.391-2.406-0.898-2.406c-5.898-0.898-8.297-2.695-11.188-4.797c-5.805-4.203-11.992-9-24.609-20
			c-0.586-0.5-0.906-1.297-0.297-1.906c6.094-6.594,17.305-15.992,25.797-23.891c5.609-5.203,8.406-7.305,10.508-7.805
			c1.492-0.305,2.898-0.602,3.891-0.805c0.805-0.188,1.109-0.492,1.016-1.195l-0.797-2.102c-6.117,0.305-11.703,0.406-23.305,0.305
			l0.391,2.992c0.414,0.203,1.992,0.609,3.008,0.805c0.703,0.102,1,0.703,0.094,1.508c-8.492,8-22.906,21.094-25.406,23.594
			c-2.891,2.797-4.297,3-4.688,3c-0.312,0-0.602-0.203-0.602-1.5v-8.891c0-13.609,0.695-15.812,1.188-16.406
			c0.914-1.406,3.203-1.609,7.109-2.008c0.195,0,0.391-0.289,0.391-0.695l-0.297-2.703c-3.297,0.109-5.797,0.305-13.297,0.305
			c-3.203,0-9.805-0.305-10.992-0.305c-0.203,0.406,0.094,2.906,0.289,3.109c1.305,0.289,3.008,0.391,4.805,0.891
			c1.992,0.406,2.5,1.703,2.5,14.109V127.935"/>
		<path id="path34" fill="#FFFFFF" d="M773.311,167.732c-2.109,0-4.203-1.906-4.203-4.297c0-4.008,2.195-5.609,5.203-5.703
			c2.695-0.102,3.883,2.203,3.883,4.594c0,3.398-2.383,5.406-4.789,5.406H773.311z M774.311,171.529c4.68,0,8.203-3.594,8.203-8.305
			c0-3.992-1.703-5.898-4.906-7.602c-2.211-1.391-3.5-1.695-4.711-1.695c-4.195,0-8.203,3.203-8.203,7.805
			c0,4.203,2.211,7,6.211,8.797c1.703,0.703,2.5,1,3.305,1H774.311z M762.803,112.435c0.602,0,2.695-0.203,7.211-0.203
			c4.68,0,7.5,0.094,10.188,0.203c0.703,0,1,0.891,0.805,1.391c-3.906,10.602-5.898,16.5-9,24.5
			c-0.195,0.406-0.898,0.203-1.195-0.391c-4.703-10.906-6.016-14.203-9.906-24.406c-0.094-0.406,0.492-1.094,1.797-1.094H762.803z
			 M775.014,151.826c0.68,0,0.891-0.5,1.188-1.5c3.008-9.703,5.102-14.703,8.594-24.094c3.203-8.906,11.312-27.797,12.617-30.906
			c2.094-4.703,3.492-6.5,9.195-7.594c0.203,0-0.406-2.703-0.797-3c-8.297,0.094-10.312,0.094-13.617,0.094
			c-3.203,0-5.992-0.398-6.891-0.297c-0.391,0-0.609,0.102-0.703,0.297c-0.195,0.609-0.609,2.406-0.492,2.609
			c5.102,1.391,5.805,2.094,4.594,6c-0.508,2-3.688,10.094-5,13.297c-0.297,0.703-0.898,1.492-1.695,1.492
			c-7.211,0-15.703-0.102-21.609-0.398c-1.188-0.094-1.695-0.391-2.5-2.102c-0.992-2.102-4.289-10.695-4.289-13.398
			c0-2.195,0.797-3,5.797-4.5c0.102-0.594-0.414-2.5-0.797-2.797c-4.906,0.102-10.609,0.102-12.703,0.102
			c-1.695,0-3.297-0.102-3.711,0c-0.484,0-0.586,0.102-0.703,0.305c-0.383,0.594-0.68,2.5-0.484,2.789
			c4.297,1.203,5.297,3.414,7.984,8.508c2.82,5.5,14.203,33.594,20,47.406c1.117,2.688,1.703,4.391,2.312,5.992
			c0.094,0.492,0.188,0.594,0.602,0.805c0.391,0.188,2.086,0.891,3.008,0.891H775.014"/>
		<path id="path36" fill="#FFFFFF" d="M862.396,133.123c0,7.703-5.906,14.508-14.906,14.508c-3.398,0-5.297-0.398-6.695-1.102
			c-0.898-0.406-1.195-1-1.391-1.797c-0.508-3.094-0.797-8.203-0.703-17.297c0-9.406,0.289-9.703,0.703-10
			c0.492-0.203,1.703-0.305,3.188-0.305c7.805,0,12.5,1.094,15.703,4.898c2.398,2.906,4.102,6.797,4.102,11V133.123z
			 M822.998,149.326c-0.102,0.305,0.102,0.5,0.391,0.703c5.219,0.102,9.805,0.102,14.102,0.5c4.609,0.297,7.305,0.406,10,0.406
			c6.016,0,12.203-0.805,17.406-4.508c4.703-3.305,7.109-8.203,7.109-12.992c0-7.906-6.805-12.609-10.609-14.812
			c-0.602-0.297-0.898-0.797-0.703-1.492c0.508-2.102,2.602-7.992,6.898-14.602c4.602-7.094,9.602-12.203,18.102-16.297
			c0.992-0.508,1.094-0.906,0.992-1.406c-0.094-0.898-0.484-1.891-0.703-1.891c-8.883,0.891-15.289,3.891-20.992,9.195
			c-4.195,4.102-7.289,9.695-10.703,16.195c-2.281,4.609-3.398,5.5-9.594,5.5c-2.906,0-4-0.094-4.797-0.297
			c-0.609-0.203-1.289-0.703-1.289-1.5c0-7.602,0.094-13.5,0.383-19.297c0.102-1.5,0.516-2.297,1-2.602
			c1.016-0.992,5.406-1.601,7.711-2.195c0-0.5-0.508-2.211-0.695-2.609c-0.102-0.195-0.414-0.195-1.406-0.195
			c-1.094,0-9.297,0.102-13.406,0.102c-3.586,0-5.508-0.297-6.5-0.297c-1.289,0-1.508,0-1.602,0.195
			c-0.484,0.492-0.586,2.305-0.586,2.898c1.992,0.406,5,1,5.68,2.406c1.117,1.594,1.312,9.695,1.312,21.797v11.797
			c0,5.797-0.102,13-0.195,17.797c-0.102,3.109-0.609,3.609-7.008,5.203L822.998,149.326"/>
		<path id="path38" fill="#FFFFFF" d="M923.506,119.826c4.492,0,7.891,0.109,10.391,0.305c6,0.398,6.5,0.805,7.789,6.695
			c0.414,0.305,2.719,0.5,3.211,0.406c-0.203-2.906-0.805-7.5-0.805-10.594c0.094-3.414,0.414-6.203,0.703-9.109
			c-0.805-0.203-1.602-0.297-2.305-0.297c-0.484-0.102-0.68,0.203-0.898,0.594c-0.391,1.102-0.898,2.703-1.195,3.906
			c-0.602,2.695-1.789,3.594-5.797,3.891c-2.203,0.203-5.508,0.203-10.609,0.203c-5,0-5.992-0.102-6.594-0.203
			c-0.391-0.094-0.711-0.188-1-0.594c-0.289-0.602-0.898-4.094-0.898-12.297c0-7.297,0-10,0.992-11.609
			c1.406-1.891,4.906-2.391,13.109-2.391c11.703,0,17.305,1.094,20.391,11.703c0.406,0.094,1.406,0,2.406-0.109
			c0.305-0.195,0.305-0.297,0.305-0.797c-0.211-4.594-1.812-11-3.102-13.906c-0.508-0.594-0.797-0.797-1.305-0.797
			c-0.688,0-1.391,0-4.688,0.109c-3.008,0.094-10,0.195-18.305,0.195c-8.008,0-15.898-0.398-23.906-0.703
			c-0.195,0.102-0.289,2.211-0.195,3.008c0,0.195,0.289,0.391,0.391,0.391c4.609,0.797,5,1.5,5.094,3
			c0.219,1.5,0.711,7.906,0.711,18.102v17.305c0,13.297-0.586,17.695-0.711,18.297c-0.094,0.602-0.289,1.094-1.289,1.297
			c-0.992,0.406-2.906,0.703-5.289,1.305c-0.117,0.102-0.117,0.102-0.117,0.398l0.211,2.297c0,0.406,0,0.5,0.492,0.5h3.492
			c3.109,0,6.922-0.195,13.008-0.297h9.711c6.094,0,13.398,0.5,18.398,0.594c1.289,0,1.891-0.188,2.398-0.492
			c0.906-0.602,0.906-0.602,0.492-2.398c-0.797-4.406-0.898-10.203-0.898-12.797c-2.602,0-2.984,0.297-3.109,0.891
			c-1.383,7.203-2.086,10.812-9.875,10.812h-6.914c-5.906,0-9.203-0.211-10.297-0.516c-1.305-0.398-1.5-1.391-1.5-3.688
			c0-7,0.094-14,0.195-21.008c0-0.898,0.602-1.602,1.305-1.602H923.506"/>
		<path id="path40" fill="#FFFFFF" d="M969.388,150.435c4.602-0.203,6.797-0.406,13.906-0.406c0.586,0,1.094-0.094,1.281-0.297
			c0.414-0.305,0.906-1.109,1.219-1.797c0.695-1.297,4.195-5.906,6.602-8.109c5.992-6.094,20.586-20.594,40.484-39.391
			c0.102,3.188,0.195,12.195,0.195,19.594c0,10.406-0.094,15.797-0.484,20.906c-0.203,1.695-0.414,4.195-2.602,4.891
			c-1.109,0.406-3.812,0.703-5.898,0.906c-0.312,0.094-0.516,0.195-0.516,0.5l-0.188,2.797c3.789,0,7.602,0,11.289,0
			c3.898,0,7.914,0.297,11.016,0.406c0.484,0,0.797-0.203,0.898-0.5l0.586-2.109c-3.602-0.797-5-1.188-6.602-2.203
			c-1.898-1.094-2.5-4.297-2.984-17.891c-0.203-9-0.312-15.5-0.312-28.906c0-6.391,0.312-12.297,0.312-14
			c-0.102-0.594-0.711-1.094-2.016-1.602c-0.484-0.195-0.898-0.195-1.383,0.508c-5.906,8.703-15.203,18.094-25.703,28.5
			c-8.297,8.297-16.219,16.094-24.398,24.297c-0.312-5.594-0.508-12.703-0.508-18.305c0-9.086,0-22.602,1.188-26.398
			c0.805-2.297,3.914-3.094,8.008-3.891l0.703-2.406c0.102-0.297-0.5-0.797-0.797-0.797c-4.203,0-8.594,0.398-12.695,0.398
			c-3.5,0-6.508-0.305-8.203-0.305c-0.195,1-0.508,2-0.805,2.805c6.289,1.695,6.703,2.695,7.211,5.992
			c0.289,2.5,1.195,11.703,1.195,25.805v11.102c0,10.297-0.203,12-1.797,13.5c-1.609,1.695-3.203,2.609-7.406,3.102
			c-0.609,0.195-0.797,0.305-0.797,0.695V150.435"/>
		<path id="path42" fill="#FFFFFF" d="M2.014,29.607c0.289,0.359,0.352,0.422,0.633,0.359c2.242-0.141,5.461-0.203,6.438-0.141
			c1.68,0,3.297,0,4.836-0.062c0.211,0.062,0.211-0.156,0.141-0.703l-0.211-1.266l-1.68-0.484c-0.562-0.156-0.703-0.422-0.422-1.195
			c1.609-4.336,5.391-13.164,7.141-16.727c0.352-0.844,0.625-1.125,0.836-0.984c1.82,3.57,6.445,15.188,7.281,18.484
			c0.078,0.422-0.07,0.422-1.047,0.484l-1.961,0.141c-0.281,0-0.352,0.281-0.281,0.562c0.422,1.688,0.562,1.812,1.188,1.812
			c0.844,0,3.57-0.062,5.258-0.062c1.609,0,3.148,0.062,3.703,0.062c0.492,0,0.633-0.062,0.773-0.281
			c0.07-0.344,0.141-0.625,0.211-1.594c0-0.219-0.07-0.281-0.352-0.359h-0.844c-2.445,0-2.938-1.469-4.547-4.617
			c-1.188-2.602-6.156-13.719-8.328-18.898c-0.211-0.5-1.609-2.945-1.961-3.648c-0.211-0.344-0.352-0.492-0.984-0.492
			c-0.906,0-1.258,0.148-1.391,0.422c-0.078,0.219-0.562,1.125-1.68,4c-3.922,10.008-7.148,17.008-8.477,19.797
			c-1.258,2.523-1.953,3.227-4.484,3.641c-0.414,0-0.555,0.289-0.484,0.578L2.014,29.607"/>
		<path id="path44" fill="#FFFFFF" d="M45.904,3.513c1.195,0,1.891,0.344,2.172,1.391c0.141,0.633,0.352,2.172,0.352,7.703v7.078
			c0,2.859,0,4.469-0.07,5.656c-0.211,1.812-0.977,2.234-4.477,2.234c-0.148,0-0.352,0.219-0.352,0.359
			c0,0.344,0.281,1.25,0.414,1.539c0.141,0.352,0.281,0.414,1.055,0.414c4.062,0,5.25-0.062,7-0.062
			c2.453,0,5.461,0.062,6.023,0.062c0.414,0,0.836-0.062,0.906-0.344l0.141-1.688c-4.266-0.625-4.617-0.969-4.766-1.609
			c-0.203-0.836-0.344-2.516-0.344-6.922v-6.438c0-3.5,0.141-6.234,0.492-8.188c0.141-0.844,0.562-0.984,3.844-1.344
			c0.07-0.203,0.211-1.531,0.141-1.953c0-0.281-0.141-0.344-0.695-0.344c-3.289,0.062-5.391,0.062-7.492,0.062
			c-3.359-0.062-5.602-0.141-6.094-0.141c-0.273,0-0.484,0.211-0.555,0.625l-0.141,1.547c0,0.141,0,0.281,0.141,0.281L45.904,3.513"
			/>
		<path id="path46" fill="#FFFFFF" d="M95.678,16.037c0,3.914-1.539,7.422-4.406,9.445c-2.594,1.891-5.602,2.312-7.492,2.312
			c-2.031,0-3.359-0.422-3.852-0.703c-0.352-0.141-0.422-0.422-0.492-0.844c-0.141-1.328-0.281-5.172-0.281-9.234
			c0-6.156,0.281-10.781,0.703-12.531c0.07-0.344,0.211-0.484,0.633-0.703c0.906-0.344,2.164-0.422,3.359-0.422
			c1.539,0,3.984,0.422,6.438,1.766c3.57,1.953,5.391,6.297,5.391,10.844V16.037z M69.92,29.474c0,0.289,0.141,0.414,0.281,0.414
			c2.102,0,4.125,0,7.062,0.078c3.086,0.062,4.695,0.211,7.07,0.211c2.945,0,8.891-0.414,13.023-4.062
			c3.289-2.938,4.898-6.586,4.898-10.5c0-2.805-1.117-6.586-4.336-9.523c-3.156-2.797-5.391-3.703-7.773-4.406
			c-1.891-0.562-4.195-0.703-7.07-0.703c-2.375,0-6.789,0.141-7.836,0.141c-2.242,0-4.344-0.062-4.695-0.062
			c-0.211,0-0.414,0-0.414,0.062L69.92,3.154c3.008,0.625,3.289,1.195,3.359,2.102c0.281,2.656,0.281,10.078,0.281,15.602
			c0,4.133-0.078,4.969-0.141,5.461c-0.141,0.57-0.773,0.992-3.016,1.336c-0.203,0-0.344,0.203-0.422,1.117L69.92,29.474"/>
		<path id="path48" fill="#FFFFFF" d="M174.068,12.263c0.281,0,1.539-0.359,1.891-0.578c0.281-0.266,0.281-0.484,0.211-0.75
			c-0.836-2.875-1.609-5.891-2.102-8.906c-0.141-0.688-0.625-0.969-1.188-1.047c-0.695-0.062-1.469-0.062-4.406-0.062
			c-2.875,0-6.305,0.203-18.133,0.203c-3.781,0-7.203-0.352-8.188-0.422c-0.773-0.062-1.195-0.062-1.336-0.062
			c-0.211,0.281-0.625,1.75-0.555,2.172c3.43,0.414,5.18,1.047,5.734,3.148c0.289,0.977,0.492,3.562,0.492,10.703v14.352
			c0,5.953-0.141,9.734-0.344,11.273c-0.211,1.609-0.773,1.883-5.75,1.82c-0.203,0-0.414,0.414-0.273,0.836l0.562,1.258
			c0.07,0.359,0.133,0.359,0.273,0.359c2.102,0,4.273-0.078,6.516,0c3.562,0.062,7.273,0.281,10.922,0.414
			c0.273-0.211,0.484-1.539,0.484-2.102c-4.195-0.484-5.875-0.844-6.227-3.711c-0.211-2.023-0.422-6.648-0.352-12.312l0.07-8.539
			c0.07-11.07,0.141-13.234,0.211-14.5c0.07-0.969,0.484-1.531,1.328-1.75c1.188-0.422,3.359-0.547,6.516-0.547
			c4.617,0,9.094,0.125,11.406,3.703c0.766,1.188,1.328,2.516,1.82,4.688c0.07,0.281,0.141,0.359,0.352,0.359H174.068"/>
		<path id="path50" fill="#FFFFFF" d="M200.115,0.146c-3.359,0-6.859,0.914-9.031,2.945c-2.727,2.516-3.289,6.148-3.359,9.234
			c0,2.453,0,4.75,0.133,8.266c0.148,3.625,0.078,5.234-0.133,6.148c-0.141,0.633-1.258,0.914-2.945,1.117
			c-0.133,0.078-0.133,0.219-0.133,1.547c0,0.422,0.211,0.484,0.836,0.484c1.328,0,4.477-0.062,5.531-0.062
			c2.031,0,3.43,0.203,7.211,0.203c0.273,0,0.352-0.141,0.273-0.844c-0.062-1.039-0.211-1.109-0.555-1.172
			c-2.664-0.438-3.781-0.859-4.062-2.602c-0.211-1.68-0.484-4.898-0.484-13.086c0-3.508,1.188-5.609,2.938-7
			c1.609-1.266,3.641-1.688,6.023-1.688c3.422,0,5.594,1.898,6.57,3.156c1.469,1.891,1.891,5.312,1.891,9.594
			c0,3.711-0.062,7.562-0.422,9.797c-0.203,1.047-0.906,1.188-4.477,1.391c-0.203,0-0.414,0.359-0.352,0.219
			c0,0.641,0.352,1.547,0.633,1.812c0.141,0.219,0.352,0.359,0.633,0.359c0.836,0,4.336-0.078,5.672-0.078
			c1.398,0,3.781,0.141,5.172,0.141c0.211,0,0.289-0.141,0.289-0.766c-0.289-0.984-0.422-1.406-0.633-1.469
			c-0.633-0.062-1.75-0.422-2.172-0.562c-0.281-0.141-0.555-0.414-0.695-1.047c-0.148-0.844-0.492-3.297-0.703-10.148
			c-0.211-5.18-0.625-8.336-2.867-11.133c-2.594-3.078-7.141-4.758-10.719-4.758H200.115"/>
		<path id="path52" fill="#FFFFFF" d="M240.225,1.342c0-0.148-0.133-0.359-0.344-0.359c-2.18,0-4.484,0.141-6.586,0.141
			c-1.469,0-3.359-0.141-4.266-0.141l-0.562,1.75c0,0.078,0.07,0.203,0.344,0.281c2.531,0.562,2.945,1.188,3.156,2.664
			c0.211,1.188,0.633,4.336,0.633,8.609v7.562c0,3.008-0.141,3.977-0.562,4.547c-0.422,0.836-0.984,1.117-3.781,1.539
			c-0.352,0.078-0.492,0.211-0.492,0.562v1.328c0,0.203,0.07,0.281,0.352,0.203c2.594-0.141,3.641-0.203,7.906-0.141
			c0.703,0,1.125-0.125,1.266-0.547c0.211-0.641,1.188-1.828,2.727-3.516c2.383-2.578,7.984-8.531,16.172-16.375
			c0.281,3.781,0.352,12.469,0.07,15.961c-0.211,1.742-0.555,1.898-3.922,2.32c-0.344,0-0.484,0.125-0.484,0.414l-0.07,1.742
			c1.891,0,3.703,0,5.453,0c1.68,0,4.273,0.219,6.023,0.141c0.211,0,0.352-0.062,0.352-0.203l0.414-1.609
			c-3.844-1.266-4.195-1.398-4.547-6.656c-0.203-4.547-0.281-8.391-0.281-12.531c0-4.055,0.141-6.578,0.141-7.062
			c0-0.984-1.328-1.547-2.164-1.82c-0.352-0.148-0.562,0-0.844,0.492c-1.398,1.883-2.445,3.219-4.477,5.32
			c-3.008,3.07-11.203,11.758-15.406,16.023c-0.422,0.422-0.766,0.281-0.836-0.133c-0.07-1.125-0.211-3.227-0.211-6.234
			c0-4.055-0.07-9.164,0.484-10.711c0.422-1.391,2.102-1.68,4.133-1.891L240.225,1.342"/>
		<path id="path54" fill="#FFFFFF" d="M300.076,16.037c0,3.914-1.547,7.422-4.414,9.445c-2.594,1.891-5.602,2.312-7.484,2.312
			c-2.031,0-3.367-0.422-3.859-0.703c-0.352-0.141-0.414-0.422-0.484-0.844c-0.141-1.328-0.281-5.172-0.281-9.234
			c0-6.156,0.281-10.781,0.703-12.531c0.062-0.344,0.211-0.484,0.625-0.703c0.906-0.344,2.172-0.422,3.359-0.422
			c1.539,0,3.992,0.422,6.445,1.766c3.57,1.953,5.391,6.297,5.391,10.844V16.037z M274.311,29.474c0,0.289,0.141,0.414,0.281,0.414
			c2.102,0,4.133,0,7.07,0.078c3.078,0.062,4.688,0.211,7.07,0.211c2.938,0,8.891-0.414,13.023-4.062
			c3.289-2.938,4.891-6.586,4.891-10.5c0-2.805-1.117-6.586-4.336-9.523c-3.148-2.797-5.383-3.703-7.773-4.406
			c-1.883-0.562-4.195-0.703-7.062-0.703c-2.383,0-6.789,0.141-7.844,0.141c-2.234,0-4.336-0.062-4.688-0.062
			c-0.211,0-0.422,0-0.422,0.062l-0.211,2.031c3.016,0.625,3.289,1.195,3.359,2.102c0.281,2.656,0.281,10.078,0.281,15.602
			c0,4.133-0.07,4.969-0.141,5.461c-0.141,0.57-0.773,0.992-3.008,1.336c-0.211,0-0.352,0.203-0.422,1.117L274.311,29.474"/>
		<path id="path56" fill="#FFFFFF" d="M340.396,8.896c0-3.641-1.961-5.883-4.484-7.07c-2.516-1.125-6.086-1.547-7.906-1.547
			c-2.031,0-4.898,0.359-6.516,0.641c-0.906,0.141-0.977,0.062-2.023-0.562c-0.211-0.289-0.422-0.359-1.055-0.359
			c-0.211,0-0.633,0.359-0.633,0.703c-0.203,3.5-0.484,5.602-0.906,9.172c0.141,0.203,0.984,0.422,1.469,0.422
			c0.352,0,0.562-0.141,0.703-0.484c1.258-4.625,5.531-7.359,9.375-7.359c3.711,0,6.586,1.828,6.516,5.188
			c0,3.141-4.133,4.828-7.492,5.953c-3.148,1.117-6.156,2.578-7.562,4.188c-0.977,1.125-1.742,2.656-1.742,4.977
			c0,3.289,1.953,5.391,3.984,6.367c2.102,1.055,5.039,1.547,7.562,1.547c1.469,0,3.43-0.141,5.039-0.422
			c0.625-0.141,0.977-0.141,1.188,0.281c0.07,0.484,0.211,0.625,0.422,0.562c1.75-0.141,1.82-0.219,1.82-0.359
			c-0.352-1.547,0.07-5.742,0.422-8.047l-1.469-0.766c-0.211-0.07-0.352,0-0.492,0.422c-0.562,1.812-1.336,3.281-2.453,4.266
			c-1.188,1.125-3.148,1.891-5.602,1.891c-3.148,0-5.383-2.031-5.383-4.281c0-3.141,3.008-4.531,6.859-5.797
			c3.422-1.125,6.367-2.453,7.695-3.641c2.031-1.68,2.664-3.508,2.664-5.812V8.896"/>
		<path id="path58" fill="#FFFFFF" d="M387.068,2.935c1.117,0.156,3.008,0.422,4.055,0.578c1.82,0.344,2.727,0.836,3.008,2.367
			c0.141,0.984,0.633,5.742,0.633,15.82v7.148c0,12.664-0.07,15.117-0.352,15.117h-5.664c-6.586,0-9.664-1.125-10.227-1.477
			c-0.844-0.625-1.328-1.883-2.312-4.758c0-0.211-0.344-0.211-0.625-0.062c-0.562,0.266-1.539,1.188-1.75,1.391
			c0.977,2.031,2.375,5.18,3.984,10.438c0.281,0.062,0.773,0,1.336-0.141c0.492-0.141,0.555-0.219,0.633-0.484
			c0-1.266,0.133-1.828,0.625-1.969c0.562-0.141,1.609-0.219,3.219-0.281c2.102-0.062,5.461-0.062,11.969-0.062
			c7.633,0,13.508,0,17.578,0.203c2.023,0.078,3.211,0.211,3.914,0.422c0.422,0.141,0.844,0.703,1.266,1.953
			c0.062,0.289,0.133,0.289,0.344,0.289c0.352,0,1.258-0.289,1.82-0.633c0.141-0.07,0.141-0.344,0-0.906
			c-1.398-3.648-1.469-5.328-1.82-9.594c0-0.359-0.211-0.562-0.766-0.562c-0.422,0-0.914,0.078-1.258,0.141
			c-0.211,0.062-0.352,0.281-0.352,0.422c0,0.562,0.141,3.008,0.141,3.641c0,0.484-0.281,1.047-1.125,1.328
			c-0.633,0.281-3.992,0.703-8.961,0.703h-4.547c-0.633,0-0.914-0.422-0.977-1.828c0-1.18-0.211-4.617-0.211-13.992v-7.008
			c0-10.078,0.211-13.078,0.484-14.344c0.211-1.188,0.703-2.094,1.539-2.516c1.258-0.703,4.414-1.125,6.023-1.266
			c0.414,0,0.492-0.078,0.414-0.281l-0.273-1.391c-0.07-0.281-0.141-0.422-0.633-0.422c-0.836,0-6.859,0.203-10.289,0.203
			c-3.641,0-9.164-0.281-9.727-0.281s-0.844,0.219-0.914,0.562L387.068,2.935"/>
		<path id="path60" fill="#FFFFFF" d="M427.732,21.138c0,3.5-0.133,5.109-0.273,5.531c-0.148,0.352-0.352,0.484-3.648,0.984
			l0.078,2.031c0.062,0.141,0.062,0.203,0.273,0.203h1.891c1.406,0,3.438-0.062,7.07-0.062c4.906,0,9.312,0.203,13.445,0.203
			c0.625,0,0.977,0,1.188-0.266c0.141-0.156,0.211-0.289,0.07-1.125c-0.281-2.109-0.352-4.484-0.281-5.672
			c0-0.211-0.211-0.281-0.695-0.281c-1.406,0-1.406,0.281-1.539,0.625c-0.773,3.508-1.266,4.203-6.516,4.203
			c-2.734,0-4.125-0.141-4.688-0.203c-0.562-0.078-0.773-0.422-0.773-0.992c0-2.938,0.07-5.945,0.07-8.672
			c0-0.414,0.352-0.773,0.562-0.773h3.078c2.102,0,3.008-0.062,4.688,0.07c1.688,0.07,2.031,0.555,2.594,2.867
			c0.07,0.211,0.422,0.289,1.68,0.289c0.352,0,0.422-0.148,0.422-0.289c-0.141-0.984-0.352-3.422-0.352-4.828
			c0-1.883,0.07-2.656,0.211-4.125c0-0.141-0.492-0.211-2.031-0.344c-0.141,0.484-0.492,1.594-0.703,2.094
			c-0.211,0.984-0.484,1.398-1.82,1.531c-1.75,0.148-2.867,0.148-5.25,0.148c-1.891,0-2.375-0.07-2.727-0.211
			c-0.281-0.141-0.422-0.484-0.422-6.586c0-1.609,0.141-2.516,0.562-3.211c0.211-0.422,1.047-0.844,5.039-0.844
			c5.109,0,7.492,0.766,8.82,5.109c0.07,0.203,0.211,0.273,0.562,0.273c0.484,0,1.188-0.133,1.328-0.133s0.281-0.07,0.281-0.492
			c-0.211-2.867-0.844-5.594-1.336-6.93c-0.133-0.203-0.484-0.281-0.695-0.281c-1.82,0-6.93,0.141-11.336,0.141
			c-4.203,0-8.055-0.203-12.539-0.203c-0.133,0.141-0.133,1.531-0.133,1.812c0.062,0.203,0.133,0.281,0.344,0.281
			c2.805,0.5,3.156,0.625,3.227,1.609c0.062,0.562,0.273,3.289,0.273,7.062V21.138"/>
		<path id="path62" fill="#FFFFFF" d="M460.561,3.092c2.594,0.344,3.367,0.547,3.641,1.258c0.211,0.555,0.422,1.461,0.422,5.664
			v9.875c0,2.453,0.07,4.547-0.141,6.094c-0.211,1.328-0.633,1.594-3.781,1.875c-0.141,0-0.352,0.219-0.273,0.5l0.344,1.531
			c2.102,0,4.203,0,6.305,0c3.922,0,6.023,0.141,6.297,0.078c0.352,0,0.492-0.078,0.562-0.203c0.07-0.289,0.211-1.406,0.133-1.617
			c-1.531-0.352-2.445-0.633-3.008-0.836c-0.836-0.289-0.977-1.125-0.977-4.906v-4.969c0-0.562,0.07-0.906,0.352-0.906
			c0.836,0,5.523,3.906,6.719,5.031c2.805,2.453,3.852,3.578,5.391,4.969c0.562,0.492,0.141,0.781-2.453,1.125l-0.07,1.953
			c0,0.219,0.07,0.219,0.422,0.219c4.828,0.062,10.781,0.281,11.547,0.281c0.141,0,0.281-0.078,0.281-0.422
			c-0.141-1.188-0.344-1.609-0.555-1.672c-2.945-0.641-4.062-1.125-5.953-2.531c-0.906-0.695-3.781-2.727-9.102-7.062
			c-0.555-0.5-0.555-0.773-0.414-0.922c3.562-4.125,7.555-7.977,10.078-10.422c1.891-1.82,3.148-2.797,4.547-3.297
			c1.195-0.266,2.102-0.484,2.586-0.625c0.422-0.141,0.562-0.344,0.492-0.633c-0.344-0.555-0.695-1.117-1.047-1.602
			c-0.703,0-3.984,0.203-6.578,0.203c-2.312,0-4.688,0-7.07,0v1.328c0,0.422,0.062,0.562,0.281,0.641
			c0.484,0.133,1.328,0.266,1.812,0.422c0.633,0.203,0.562,0.766-0.344,1.609c-2.453,2.656-6.234,6.359-8.469,8.672
			c-0.703,0.703-1.266,1.117-1.891,1.117c-0.422,0-0.562-0.203-0.562-0.773v-3.203c0-6.383,0.281-7.156,1.398-7.359
			c0.422-0.062,1.68-0.219,2.312-0.352c0.273-0.07,0.422-0.211,0.352-0.492l-0.281-1.391c-0.141-0.281-0.352-0.359-0.914-0.359
			c-0.766,0.078-2.094,0.078-6.086,0.141c-2.242,0-5.531-0.141-5.883-0.141c-0.344,0-0.422,0.078-0.422,0.281V3.092"/>
		<path id="path64" fill="#FFFFFF" d="M515.24,1.342c0-0.148-0.148-0.359-0.352-0.359c-2.172,0-4.484,0.141-6.586,0.141
			c-1.469,0-3.359-0.141-4.266-0.141l-0.562,1.75c0,0.078,0.07,0.203,0.352,0.281c2.516,0.562,2.938,1.188,3.148,2.664
			c0.211,1.188,0.625,4.336,0.625,8.609v7.562c0,3.008-0.133,3.977-0.555,4.547c-0.422,0.836-0.977,1.117-3.781,1.539
			c-0.352,0.078-0.492,0.211-0.492,0.562v1.328c0,0.203,0.078,0.281,0.352,0.203c2.594-0.141,3.641-0.203,7.914-0.141
			c0.695,0,1.117-0.125,1.266-0.547c0.203-0.641,1.18-1.828,2.719-3.516c2.383-2.578,7.984-8.531,16.172-16.375
			c0.289,3.781,0.352,12.469,0.07,15.961c-0.203,1.742-0.555,1.898-3.914,2.32c-0.352,0-0.5,0.125-0.5,0.414l-0.07,1.742
			c1.898,0,3.711,0,5.461,0c1.68,0,4.273,0.219,6.031,0.141c0.195,0,0.352-0.062,0.352-0.203l0.406-1.609
			c-3.844-1.266-4.195-1.398-4.547-6.656c-0.211-4.547-0.273-8.391-0.273-12.531c0-4.055,0.141-6.578,0.141-7.062
			c0-0.984-1.336-1.547-2.18-1.82c-0.352-0.148-0.555,0-0.836,0.492c-1.398,1.883-2.453,3.219-4.484,5.32
			c-3.008,3.07-11.188,11.758-15.391,16.023c-0.422,0.422-0.773,0.281-0.836-0.133c-0.078-1.125-0.219-3.227-0.219-6.234
			c0-4.055-0.07-9.164,0.492-10.711c0.414-1.391,2.094-1.68,4.125-1.891L515.24,1.342"/>
		<path id="path66" fill="#FFFFFF" d="M550.928,3.513c1.188,0,1.891,0.344,2.172,1.391c0.133,0.633,0.344,2.172,0.344,7.703v7.078
			c0,2.859,0,4.469-0.055,5.656c-0.211,1.812-0.992,2.234-4.492,2.234c-0.133,0-0.352,0.219-0.352,0.359
			c0,0.344,0.297,1.25,0.43,1.539c0.133,0.352,0.273,0.414,1.055,0.414c4.039,0,5.234-0.062,6.992-0.062
			c2.445,0,5.469,0.062,6.016,0.062c0.43,0,0.844-0.062,0.914-0.344l0.141-1.688c-4.281-0.625-4.625-0.969-4.766-1.609
			c-0.195-0.836-0.352-2.516-0.352-6.922v-6.438c0-3.5,0.156-6.234,0.492-8.188c0.148-0.844,0.562-0.984,3.859-1.344
			c0.062-0.203,0.195-1.531,0.141-1.953c0-0.281-0.141-0.344-0.703-0.344c-3.297,0.062-5.391,0.062-7.5,0.062
			c-3.359-0.062-5.586-0.141-6.078-0.141c-0.289,0-0.484,0.211-0.562,0.625l-0.141,1.547c0,0.141,0,0.281,0.141,0.281L550.928,3.513
			"/>
		<path id="path68" fill="#FFFFFF" d="M597.764,8.896c0-3.641-1.953-5.883-4.469-7.07c-2.523-1.125-6.102-1.547-7.914-1.547
			c-2.031,0-4.898,0.359-6.523,0.641c-0.898,0.141-0.977,0.062-2.008-0.562c-0.219-0.289-0.43-0.359-1.055-0.359
			c-0.219,0-0.625,0.359-0.625,0.703c-0.219,3.5-0.516,5.602-0.922,9.172c0.141,0.203,0.977,0.422,1.469,0.422
			c0.344,0,0.562-0.141,0.703-0.484c1.266-4.625,5.523-7.359,9.375-7.359c3.711,0,6.578,1.828,6.516,5.188
			c0,3.141-4.133,4.828-7.5,5.953c-3.141,1.117-6.148,2.578-7.555,4.188c-0.977,1.125-1.758,2.656-1.758,4.977
			c0,3.289,1.977,5.391,4.008,6.367c2.086,1.055,5.039,1.547,7.555,1.547c1.461,0,3.422-0.141,5.039-0.422
			c0.625-0.141,0.977-0.141,1.195,0.281c0.055,0.484,0.211,0.625,0.406,0.562c1.758-0.141,1.82-0.219,1.82-0.359
			c-0.336-1.547,0.078-5.742,0.422-8.047l-1.461-0.766c-0.211-0.07-0.352,0-0.492,0.422c-0.562,1.812-1.32,3.281-2.461,4.266
			c-1.188,1.125-3.141,1.891-5.602,1.891c-3.148,0-5.367-2.031-5.367-4.281c0-3.141,3-4.531,6.852-5.797
			c3.414-1.125,6.367-2.453,7.695-3.641c2.031-1.68,2.656-3.508,2.656-5.812V8.896"/>
		<path id="path70" fill="#FFFFFF" d="M608.686,3.092c2.594,0.344,3.359,0.547,3.625,1.258c0.219,0.555,0.43,1.461,0.43,5.664v9.875
			c0,2.453,0.078,4.547-0.133,6.094c-0.211,1.328-0.625,1.594-3.789,1.875c-0.133,0-0.352,0.219-0.273,0.5l0.352,1.531
			c2.086,0,4.203,0,6.289,0c3.922,0,6.039,0.141,6.305,0.078c0.359,0,0.492-0.078,0.57-0.203c0.055-0.289,0.195-1.406,0.133-1.617
			c-1.539-0.352-2.461-0.633-3.008-0.836c-0.836-0.289-0.969-1.125-0.969-4.906v-4.969c0-0.562,0.055-0.906,0.328-0.906
			c0.844,0,5.547,3.906,6.734,5.031c2.797,2.453,3.852,3.578,5.375,4.969c0.57,0.492,0.156,0.781-2.438,1.125l-0.078,1.953
			c0,0.219,0.078,0.219,0.422,0.219c4.828,0.062,10.789,0.281,11.547,0.281c0.133,0,0.289-0.078,0.289-0.422
			c-0.156-1.188-0.344-1.609-0.562-1.672c-2.945-0.641-4.062-1.125-5.953-2.531c-0.898-0.695-3.773-2.727-9.109-7.062
			c-0.539-0.5-0.539-0.773-0.406-0.922c3.57-4.125,7.562-7.977,10.078-10.422c1.898-1.82,3.148-2.797,4.547-3.297
			c1.195-0.266,2.094-0.484,2.602-0.625c0.414-0.141,0.547-0.344,0.484-0.633c-0.344-0.555-0.695-1.117-1.055-1.602
			c-0.703,0-3.977,0.203-6.578,0.203c-2.305,0-4.688,0-7.07,0v1.328c0,0.422,0.078,0.562,0.273,0.641
			c0.492,0.133,1.328,0.266,1.836,0.422c0.625,0.203,0.547,0.766-0.352,1.609c-2.461,2.656-6.234,6.359-8.477,8.672
			c-0.703,0.703-1.266,1.117-1.891,1.117c-0.414,0-0.547-0.203-0.547-0.773v-3.203c0-6.383,0.266-7.156,1.383-7.359
			c0.43-0.062,1.68-0.219,2.305-0.352c0.289-0.07,0.43-0.211,0.352-0.492l-0.273-1.391c-0.133-0.281-0.352-0.359-0.922-0.359
			c-0.758,0.078-2.086,0.078-6.07,0.141c-2.25,0-5.523-0.141-5.883-0.141c-0.344,0-0.422,0.078-0.422,0.281V3.092"/>
		<path id="path72" fill="#FFFFFF" d="M659.717,12.81c2.094,0,4.336,0,6.992,0.078c0.352,0,0.625,0.344,0.43,0.766
			c-1.617,4.766-2.734,7.562-3.867,10.641c-1.523-3.641-2.93-7.062-4.336-10.781c-0.055-0.344,0.352-0.703,0.703-0.703H659.717z
			 M665.17,30.802c0.773,0,1.055-0.133,1.266-0.695c2.93-7.844,6.094-16.102,9.727-23.805c0.914-1.883,1.602-2.727,4.414-3.211
			c0.273,0,0.273-0.156,0.273-0.781c-0.133-1.328-0.352-1.391-0.758-1.391c-3.305,0.062-5.258,0.141-6.797,0.141
			c-2.25,0-4.414-0.219-4.906-0.219c-0.133,0-0.703,1.609-0.703,1.891c1.891,0.562,2.734,0.984,2.734,1.617
			c0,0.773-1.25,3.977-1.602,4.758c-0.297,0.562-0.641,0.906-1.328,0.906c-2.875,0.062-6.227,0.141-8.906,0
			c-0.766,0-1.188-0.422-1.523-0.984c-0.508-1.047-1.195-3.492-1.195-4.125c0-0.625,0.414-1.188,2.656-1.68
			c0.359-0.07,0.414-0.133,0.414-0.492c0-0.211-0.273-1.25-0.414-1.672c-3.43,0.062-6.086,0.062-7.359,0.062
			c-0.68,0-2.094-0.062-2.359-0.062c-0.219,0-0.781,0.969-0.781,1.672c0,0.281,0.078,0.492,0.133,0.492
			c2.672,0.633,3.227,1.125,4.844,4.266c2.578,5.461,6.016,13.445,8.672,19.602c0.562,1.188,0.844,2.094,0.977,2.672
			c0.133,0.266,0.289,0.414,0.57,0.547c0.562,0.289,1.188,0.492,1.891,0.492H665.17"/>
		<path id="path74" fill="#FFFFFF" d="M750.561,25.56c3.711,0,8.062-0.078,8.828,0.062c0.625,0.07,0.758,0.422,0.758,2.523v6.016
			c0,4.477,0,5.742-0.055,6.93c-0.078,2.391-0.703,2.656-5.18,3.43c-0.141,0.133,0.195,1.961,0.352,2.102
			c2.516,0,4.961-0.062,7.477-0.062c0.844,0,2.391,0.062,3.789,0.203c1.469,0.141,2.875,0.211,3.227,0.211
			c0.484,0,0.68,0,0.844-0.289c0.266-0.547,0.484-1.391,0.484-1.742c-3.93-0.625-4.633-0.836-4.844-3.148
			c-0.055-1.469-0.273-6.375-0.273-10.992V18.201c0-6.359,0.141-8.68,0.352-11.688c0.133-1.891,0.492-2.453,4.961-2.875
			c0.156-0.344-0.414-2.234-0.844-2.297c-3,0-6.008,0-9.094,0c-3.906,0-5.039-0.219-5.586-0.219c-0.359,0-0.57,0-0.57,0.219v2.016
			c3.438,0.422,4.336,0.922,4.547,1.688c0.281,0.984,0.414,4.125,0.414,10.086v5.664c0,0.562-0.133,1.125-0.336,1.328
			c-0.422,0.281-0.992,0.352-8.688,0.352h-10.352c-8.75,0-9.945-0.07-10.781-0.211c-0.977-0.141-1.055-0.625-1.055-1.539
			c0-5.391,0-9.164,0.211-12.32c0.062-2.375,0.219-3.219,0.625-3.641c0.43-0.484,0.984-0.906,4.336-1.539
			c0.492-0.07,0.648-0.133,0.648-0.352c0-0.422,0.055-1.953-0.078-2.102c-2.383,0.07-6.859,0.352-10.156,0.352
			c-3.633-0.062-4.961-0.281-5.25-0.281c-0.281,0-0.336,0-0.492,0.141c-0.195,0.211-0.547,1.75-0.484,1.953
			c3.781,0.922,4.336,1.414,4.547,3.445c0.141,1.039,0.297,3.562,0.297,10.695v12.812c0,6.797-0.078,9.25-0.156,11.492
			c-0.141,2.164-0.414,2.648-4.828,3.273c-0.055,0.219,0.078,1.125,0.352,1.766c0.078,0.203,0.141,0.203,0.43,0.203
			c2.516,0,4.75-0.062,6.719-0.062c1.523,0,2.656,0,3.906,0.062c1.133,0,2.383,0.219,3.789,0.281
			c0.133-0.141,0.273-2.094,0.055-2.25c-2.789-0.336-3.844-0.688-4.117-2.367c-0.43-2.164-0.352-5.961-0.352-10.852
			c0-5.812,0.078-5.875,1.266-5.875H750.561"/>
		<path id="path76" fill="#FFFFFF" d="M802.646,42.217c0.352,0,0.836-0.078,0.914-0.141c0.625-1.328,1.117-1.82,2.586-2.375
			c0.5-0.219,0.422-1.969,0-2.18c-1.68-0.695-2.039-1.539-2.523-3.211c-0.141-0.281-1.953-0.281-2.227,0.484
			c-0.492,1.266-0.977,1.609-2.656,2.594c-0.43,0.211-0.508,1.75-0.078,1.961c1.68,0.773,1.953,0.977,2.734,2.656
			c0.055,0.133,0.625,0.211,1.195,0.211H802.646z M795.521,28.357c-2.25,0-4.281-1.125-5.75-2.875
			c-2.031-2.445-2.656-5.797-2.656-9.172c0-4.125,1.391-7.625,3.562-9.93c2.242-2.453,5.039-3.648,7.5-3.648
			c3.711,0,8.047,3.984,8.047,11.695c0,3.992-0.703,7.625-3.633,10.711c-1.625,1.75-3.852,3.219-7.016,3.219H795.521z
			 M790.888,42.138c0.43,0,0.703-0.062,0.781-0.203c0.688-1.125,0.977-1.68,2.516-2.172c0.414-0.062,0.336-1.891,0-2.094
			c-1.484-0.844-1.75-1.344-2.516-3.156c-0.078-0.484-1.617-0.422-1.898,0c-0.703,1.391-1.328,2.094-2.594,2.312
			c-0.352,0.07-0.758,1.688-0.211,2.172c1.398,0.906,1.891,1.125,2.461,2.867c0.133,0.141,0.758,0.273,1.398,0.273H790.888
			L790.888,42.138z M796.904,30.802c8.617,0,15.82-6.648,15.82-14.766c0-5.602-2.656-9.586-5.586-12.109
			c-2.953-2.664-7.281-3.781-9.664-3.781c-5.117,0-9.945,1.883-13.164,5.32c-2.304,2.516-3.773,6.438-3.773,10.078
			c0,4.062,1.469,7.914,4.961,10.984c2.945,2.734,7.148,4.273,11.352,4.273H796.904"/>
		<path id="path78" fill="#FFFFFF" d="M854.092,13.302c-1.328-0.203-1.539-0.492-1.539-0.695c-0.414-4.281-0.414-8.969-0.414-10.008
			c0-0.773-0.211-1.117-0.703-1.477c-0.352-0.352-1.133-0.352-2.164-0.352c-2.172-0.07-4.5-0.492-7.852-0.492
			c-6.023,0-10.57,1.484-13.789,4.562c-2.523,2.375-4.203,6.094-4.203,10.773c0,4.406,1.758,8.188,4.414,10.57
			c3.789,3.359,9.805,4.617,14.008,4.617c1.734,0,4.117-0.273,5.25-0.555c1.039-0.281,1.328-0.141,1.742,0.703
			c0,0.141,0.078,0.141,0.914,0l0.703-0.219c0.273-0.062,0.406-0.281,0.406-0.844c0.078-2.234,0.57-5.453,0.781-6.711
			c0.141-0.492,0.141-0.773-0.078-0.977c-0.133-0.078-1.047-0.352-1.594-0.352h-0.164c-0.133,0-0.266,0.273-0.406,0.555
			c-1.758,3.641-4.828,5.953-8.883,5.953c-2.383,0-4.844-0.844-6.375-2.172c-2.18-1.75-4.195-5.391-4.195-10.43
			c0-3.008,0.766-7.008,3.906-9.797c2.734-2.32,6.172-3.359,8.047-3.359c1.406,0,2.867,0.555,3.516,1.039
			c0.766,0.562,1.328,2.32,1.328,4.977c0,3.148-0.156,4.133-1.836,4.484c-1.109,0.203-2.578,0.352-3.062,0.492
			c-0.297,0.062-0.359,0.281-0.844,1.812c0,0.352,0.055,0.484,0.352,0.484c3.359,0,6.016-0.203,8.32-0.203
			c2.172,0,3.578,0.203,4.062,0.203c0.352,0,0.43-0.133,0.43-0.422L854.092,13.302"/>
		<path id="path80" fill="#FFFFFF" d="M887.982,8.896c0-3.641-1.977-5.883-4.5-7.07c-2.516-1.125-6.086-1.547-7.906-1.547
			c-2.031,0-4.898,0.359-6.508,0.641c-0.914,0.141-0.969,0.062-2.023-0.562c-0.219-0.289-0.414-0.359-1.062-0.359
			c-0.188,0-0.625,0.359-0.625,0.703c-0.211,3.5-0.484,5.602-0.914,9.172c0.156,0.203,0.992,0.422,1.484,0.422
			c0.352,0,0.547-0.141,0.703-0.484c1.25-4.625,5.523-7.359,9.375-7.359c3.711,0,6.586,1.828,6.508,5.188
			c0,3.141-4.125,4.828-7.484,5.953c-3.164,1.117-6.172,2.578-7.555,4.188c-1,1.125-1.758,2.656-1.758,4.977
			c0,3.289,1.953,5.391,3.977,6.367c2.117,1.055,5.039,1.547,7.562,1.547c1.484,0,3.438-0.141,5.039-0.422
			c0.641-0.141,1-0.141,1.188,0.281c0.078,0.484,0.219,0.625,0.438,0.562c1.734-0.141,1.812-0.219,1.812-0.359
			c-0.352-1.547,0.078-5.742,0.414-8.047l-1.469-0.766c-0.211-0.07-0.352,0-0.492,0.422c-0.562,1.812-1.328,3.281-2.438,4.266
			c-1.188,1.125-3.164,1.891-5.602,1.891c-3.148,0-5.391-2.031-5.391-4.281c0-3.141,3.008-4.531,6.852-5.797
			c3.438-1.125,6.367-2.453,7.695-3.641c2.031-1.68,2.68-3.508,2.68-5.812V8.896"/>
		<path id="path82" fill="#FFFFFF" d="M898.896,3.092c2.578,0.344,3.359,0.547,3.633,1.258c0.211,0.555,0.406,1.461,0.406,5.664
			v9.875c0,2.453,0.086,4.547-0.133,6.094c-0.195,1.328-0.625,1.594-3.773,1.875c-0.133,0-0.344,0.219-0.289,0.5l0.352,1.531
			c2.109,0,4.203,0,6.305,0c3.93,0,6.023,0.141,6.289,0.078c0.359,0,0.508-0.078,0.57-0.203c0.078-0.289,0.219-1.406,0.141-1.617
			c-1.547-0.352-2.445-0.633-3.008-0.836c-0.844-0.289-0.984-1.125-0.984-4.906v-4.969c0-0.562,0.078-0.906,0.359-0.906
			c0.836,0,5.523,3.906,6.719,5.031c2.789,2.453,3.844,3.578,5.383,4.969c0.57,0.492,0.141,0.781-2.438,1.125l-0.078,1.953
			c0,0.219,0.078,0.219,0.414,0.219c4.844,0.062,10.781,0.281,11.555,0.281c0.141,0,0.281-0.078,0.281-0.422
			c-0.141-1.188-0.359-1.609-0.57-1.672c-2.93-0.641-4.047-1.125-5.938-2.531c-0.914-0.695-3.789-2.727-9.102-7.062
			c-0.562-0.5-0.562-0.773-0.43-0.922c3.578-4.125,7.555-7.977,10.094-10.422c1.875-1.82,3.148-2.797,4.531-3.297
			c1.195-0.266,2.117-0.484,2.602-0.625c0.43-0.141,0.57-0.344,0.484-0.633c-0.344-0.555-0.703-1.117-1.047-1.602
			c-0.688,0-3.992,0.203-6.57,0.203c-2.32,0-4.703,0-7.062,0v1.328c0,0.422,0.055,0.562,0.266,0.641
			c0.492,0.133,1.328,0.266,1.82,0.422c0.625,0.203,0.562,0.766-0.352,1.609c-2.438,2.656-6.227,6.359-8.477,8.672
			c-0.68,0.703-1.25,1.117-1.875,1.117c-0.43,0-0.57-0.203-0.57-0.773v-3.203c0-6.383,0.281-7.156,1.406-7.359
			c0.414-0.062,1.68-0.219,2.305-0.352c0.281-0.07,0.414-0.211,0.359-0.492l-0.281-1.391c-0.148-0.281-0.344-0.359-0.914-0.359
			c-0.758,0.078-2.109,0.078-6.094,0.141c-2.25,0-5.531-0.141-5.875-0.141c-0.359,0-0.414,0.078-0.414,0.281V3.092"/>
		<path id="path84" fill="#FFFFFF" d="M953.56,28.357c-2.242,0-4.25-1.125-5.742-2.875c-2.023-2.445-2.648-5.797-2.648-9.172
			c0-4.125,1.398-7.625,3.57-9.93c2.242-2.453,5.039-3.648,7.484-3.648c3.711,0,8.062,3.984,8.062,11.695
			c0,3.992-0.703,7.625-3.648,10.711c-1.609,1.75-3.852,3.219-6.992,3.219H953.56z M954.974,30.802
			c8.609,0,15.82-6.648,15.82-14.766c0-5.602-2.656-9.586-5.609-12.109c-2.93-2.664-7.289-3.781-9.648-3.781
			c-5.117,0-9.938,1.883-13.164,5.32c-2.32,2.516-3.789,6.438-3.789,10.078c0,4.062,1.469,7.914,4.977,10.984
			c2.93,2.734,7.133,4.273,11.336,4.273H954.974"/>
		<path id="path86" fill="#FFFFFF" d="M985.201,19.607c0,3.219,0,5.18-0.133,6.219c-0.211,1.266-0.625,1.906-4.414,1.906
			c-0.219,0-0.484,0.281-0.414,0.484l0.555,1.672c1.891,0,3.781,0,5.602,0c1.898,0,6.5,0.219,7.422,0.219
			c0.414,0,0.57,0,0.758-0.219c0.078-0.062,0.141-0.703,0.219-1.812c-2.656-0.281-3.711-0.633-3.93-2.172
			c-0.133-1.539-0.133-4.344-0.133-7.344V11.42c0-6.516,0.211-7.281,1.055-7.641c0.484-0.266,2.242-0.344,3.93-0.344
			c3.898,0.078,6.227,0.562,7.75,5.383c0.156,0.352,0.211,0.422,0.352,0.422c0.43,0,1.195-0.273,1.484-0.422
			c0.141-0.07,0.273-0.336,0.195-0.625c-0.625-2.586-1.117-4.555-1.531-6.43c-0.07-0.359-0.289-0.641-0.695-0.703
			c-0.492-0.078-0.984-0.078-2.812-0.078c-1.812,0-3.984,0.141-12.242,0.141c-2.734,0-5.102-0.422-6.508-0.484
			c-0.219,0-0.43,0-0.484,0.203c-0.141,0.422-0.492,1.609-0.359,1.758c2.742,0.625,3.641,1.117,4.07,2.586
			c0.195,0.695,0.266,2.031,0.266,5.812V19.607"/>
		<path id="path88" fill="#FFFFFF" d="M1025.599,12.81c2.094,0,4.328,0,6.992,0.078c0.352,0,0.617,0.344,0.43,0.766
			c-1.625,4.766-2.742,7.562-3.875,10.641c-1.516-3.641-2.93-7.062-4.336-10.781c-0.047-0.344,0.359-0.703,0.711-0.703H1025.599z
			 M1031.037,30.802c0.789,0,1.062-0.133,1.273-0.695c2.93-7.844,6.102-16.102,9.727-23.805c0.922-1.883,1.602-2.727,4.422-3.211
			c0.273,0,0.273-0.156,0.273-0.781c-0.141-1.328-0.352-1.391-0.766-1.391c-3.297,0.062-5.258,0.141-6.797,0.141
			c-2.25,0-4.406-0.219-4.898-0.219c-0.141,0-0.711,1.609-0.711,1.891c1.898,0.562,2.742,0.984,2.742,1.617
			c0,0.773-1.25,3.977-1.602,4.758c-0.305,0.562-0.648,0.906-1.328,0.906c-2.875,0.062-6.234,0.141-8.914,0
			c-0.758,0-1.188-0.422-1.516-0.984c-0.516-1.047-1.195-3.492-1.195-4.125c0-0.625,0.414-1.188,2.648-1.68
			c0.367-0.07,0.414-0.133,0.414-0.492c0-0.211-0.273-1.25-0.414-1.672c-3.43,0.062-6.086,0.062-7.359,0.062
			c-0.68,0-2.086-0.062-2.359-0.062c-0.219,0-0.781,0.969-0.781,1.672c0,0.281,0.07,0.492,0.133,0.492
			c2.68,0.633,3.234,1.125,4.852,4.266c2.578,5.461,6.008,13.445,8.672,19.602c0.57,1.188,0.836,2.094,0.977,2.672
			c0.133,0.266,0.289,0.414,0.562,0.547c0.57,0.289,1.188,0.492,1.898,0.492H1031.037"/>
	</g>
</g>
</svg>
