<?xml version="1.0" encoding="UTF-8" standalone="no"?>
<svg
   xmlns:dc="http://purl.org/dc/elements/1.1/"
   xmlns:cc="http://creativecommons.org/ns#"
   xmlns:rdf="http://www.w3.org/1999/02/22-rdf-syntax-ns#"
   xmlns:svg="http://www.w3.org/2000/svg"
   xmlns="http://www.w3.org/2000/svg"
   viewBox="0 0 130.89999 71.300003"
   height="70.300003"
   width="70.89999"
   xml:space="preserve"
   version="1.1"
   id="svg2"><metadata
     id="metadata8"><rdf:RDF><cc:Work
         rdf:about=""><dc:format>image/svg+xml</dc:format><dc:type
           rdf:resource="http://purl.org/dc/dcmitype/StillImage" /></cc:Work></rdf:RDF></metadata><defs
     id="defs6" /><g
     transform="matrix(1.25,0,0,-1.25,0,71.3)"
     id="g10"><g
       transform="scale(0.1,0.1)"
       id="g12"><path
         id="path14"
         style="fill:#ffffff;fill-opacity:1;fill-rule:nonzero;stroke:none"
         d="m 523.848,240.281 c -53.047,0 -99.946,26.789 -127.903,67.547 L 651.746,307.82 C 623.789,267.07 576.895,240.281 523.848,240.281 Z M 368.852,395.273 c 0,81.477 63.191,148.461 143.128,154.543 L 384.086,328.293 c -9.762,20.285 -15.234,43.008 -15.234,66.98 z m 225.171,13.559 c 21.415,-37.094 40.789,-70.652 46.77,-81.012 -7.309,0 -24.641,0 -46.77,0 l 0,81.012 z M 453.676,327.82 c -22.133,0 -39.457,0.008 -46.766,0.008 5.981,10.356 25.352,43.906 46.766,81 l 0,-81.008 z m 120.347,0.215 -100.347,0 0,100.344 100.347,0 0,-100.344 z m -50.168,202.336 c 6.028,-10.449 25.696,-44.508 47.336,-81.992 l -94.675,0 c 21.636,37.484 41.304,71.543 47.339,81.992 z M 678.848,395.273 c 0,-23.972 -5.481,-46.695 -15.235,-66.976 l -127.89,221.519 c 79.941,-6.086 143.125,-73.074 143.125,-154.543 z m -3.438,-87.406 c 14.895,25.731 23.438,55.59 23.438,87.406 0,96.469 -78.465,174.95 -174.93,174.989 l -0.063,0.109 -0.066,-0.109 C 427.324,570.234 348.852,491.75 348.852,395.273 c 0,-31.816 8.543,-61.675 23.437,-87.406 l -0.019,-0.039 0.042,0 c 30.293,-52.293 86.872,-87.547 151.536,-87.547 64.66,0 121.23,35.246 151.535,87.539 l 0.047,0 -0.02,0.047" /><path
         /></g></g></svg>