<?xml version="1.0" encoding="UTF-8"?>
<!DOCTYPE svg  PUBLIC '-//W3C//DTD SVG 1.1//EN'  'http://www.w3.org/Graphics/SVG/1.1/DTD/svg11.dtd'>
<svg width="283.46px" height="283.46px" enable-background="new 0 0 283.465 283.465" version="1.1" viewBox="0 0 283.465 283.465" xml:space="preserve" xmlns="http://www.w3.org/2000/svg">
<g display="none">
	<rect x="-12.333" y="-8.333" width="314.67" height="302" display="inline" fill="#700D2F"/>
</g>
<g fill="#fff">
	<rect x="105.22" y="73.563" width="69.836" height="33.837"/>
	<rect x="122.25" y="103.5" width="35.25" height="93"/>
	<rect x="105.22" y="186.9" width="69.837" height="33.838"/>
</g>
			<path d="m176.06 71.563h-71.836-1v37.837h17.334v17.136l-2e-3 58.358h-17.333v37.838h73.837v-37.838h-17.334l1e-3 -35.352 1e-3 -40.142h17.332v-37.837h-1zm-53.502 36.838v-1h-17.334v-33.838h69.836v33.838h-17.332v1l-1e-3 41.142-1e-3 36.352v1h17.334v33.838h-69.837v-33.838h17.333v-1l2e-3 -77.494z"/>
			<polygon points="154.48 168.48 154.48 104.15 171.81 104.15 171.81 76.815 140.81 76.814 132.48 76.814 108.48 76.815 108.48 104.15 125.81 104.15 125.81 125.81 125.81 125.81 125.81 190.15 108.48 190.15 108.48 217.48 139.48 217.48 147.81 217.48 171.81 217.48 171.81 190.15 154.47 190.15 154.47 168.48" fill="#71002E" stroke="#000"/>
			<path d="m198.18 148.9c-0.375-13.75-9.957-21.084-14.123-23.667-4.893-3.032-12.771-6.034-32.127-4.958-22.5 1.25-58.625 14.5-84.125 33.875-1.632 1.24-3.875 3.5-3.625 4s0 1.625 3.5 2.625 8.5 1.375 8.5 1.375 4.625 0.25 7.125-0.25 4.594-1.805 6-2.875c2.625-2 17.125-12.375 30.375-11.625 2.998 0.17 6.125 0.5 8.625 3.5s3 9 2.75 12.25-0.125 3.125-1.125 4.25c-1 1.123-5.332 2.623-8.207 4.08-2.057 1.043-3.25 1.668-3 3.418 0.141 0.99 4.082 2.25 8.332 2.5 3.881 0.229 11.584 0.416 14.418 0.166 2.24-0.197 3.916-0.916 3.916-2.416 0-2.334-0.949-3.793-1.25-5.834-0.416-2.832-0.666-6.748-0.416-9.498 0.137-1.518 0.266-2.982 0.633-4.453 0.02 0.023 0.033 0.037 0.033 0.037s5.916 6.352 17.25 6.25c9.334-0.084 12.418-2.418 12.418-2.418l-0.098 0.072c1.883 1.357 3.221 2.096 3.221 2.096s0.375 1.791 0.125 3.166c-4.75 1.375-8.541 5.123-8.666 6.748-0.08 1.059-0.084 1.625 0.416 2.5 0.666 1.168 4.223 1.248 6.527 1.334 3.375 0.125 12.848 0.125 16.098 0s4.656-3.594 5.625-6.5c1.25-3.748 1.162-9.251 0.875-19.748z" fill="#fff"/>
				<path d="m162.1 144.65c2.549 10.45 14.21 17.125 14.722 17.407l-0.372-0.504c4e-3 0.017 0.342 1.669 0.121 2.879l0.486-0.572c-4.734 1.686-8.671 5.457-9.377 7.924-0.469 1.641 1.559 2.521 2.647 2.994 1.576 0.684 5.523 1.244 6.487 1.279 3.399 0.127 11.578-0.031 14.898-0.158 4.022-0.154 5.509-4.615 6.308-7.012 1.289-3.869 1.199-9.521 0.913-20.008-0.384-14.053-10.253-21.664-14.478-24.283-4.742-2.939-12.729-6.172-32.564-5.07-20.791 1.155-57.485 13.473-84.537 34.027-0.187 0.142-4.562 3.49-3.842 4.932 0.01 0.021 0.03 0.093 0.046 0.145 0.269 0.922 0.815 1.98 3.919 2.867 3.533 1.009 8.442 1.386 8.65 1.401 0.208 0.011 4.765 0.25 7.328-0.263 2.115-0.423 4.237-1.438 6.307-3.014 1.646-1.254 16.471-12.232 29.879-11.473 2.858 0.162 6.748 1.337 9.091 4.148l-0.055-0.074c1.42 2.209 1.867 7.828 1.633 10.869-0.211 2.749-0.435 2.996-1.176 3.814l-0.22 0.245c-0.522 0.587-2.351 1.368-4.119 2.122-1.148 0.488-2.336 0.996-3.408 1.539-2.085 1.057-3.732 1.891-3.403 4.193 0.282 1.988 6.206 2.977 9.03 3.143 4.011 0.236 11.664 0.418 14.527 0.164 4.003-0.352 4.601-2.133 4.601-3.164 0-1.504-0.359-2.656-0.707-3.77-0.225-0.723-0.438-1.406-0.551-2.172-0.387-2.635-0.664-6.54-0.411-9.323l0.031-0.347c0.228-2.531-0.316-5.24 1.262-7.721l-0.507-0.486c-1.774 2.788-2.005 5.355-2.249 8.072l-0.031 0.346c-0.264 2.906 0.021 6.954 0.421 9.678 0.131 0.883 0.371 1.654 0.604 2.4 0.328 1.053 0.639 2.047 0.639 3.322 0 1.25-2.26 1.584-3.231 1.67-2.755 0.244-10.437 0.061-14.309-0.168-4.145-0.244-7.315-1.398-7.66-1.945 0 0 0.019 0.031 0.026 0.088-0.16-1.123 0.349-1.504 2.597-2.643 1.029-0.521 2.193-1.018 3.319-1.498 2.096-0.895 3.905-1.666 4.651-2.506l0.211-0.234c0.973-1.074 1.32-1.604 1.56-4.705 0.256-3.33-0.25-9.281-1.867-11.797l-0.025-0.038-0.029-0.036c-2.65-3.18-6.985-4.506-10.159-4.686-13.945-0.789-29.181 10.488-30.871 11.777-1.888 1.438-3.803 2.358-5.693 2.736-2.377 0.476-6.892 0.238-6.938 0.236-0.033-2e-3 -4.95-0.381-8.334-1.348-2.567-0.732-2.771-1.428-2.892-1.844-0.035-0.121-0.075-0.258-0.144-0.395 0.077 0.154 0.062 0.29 0.05 0.329 0.134-0.427 1.725-2.155 3.358-3.397 26.813-20.373 63.143-32.58 83.713-33.723 19.417-1.079 27.135 2.023 31.689 4.847 4.019 2.491 13.405 9.725 13.769 23.049 0.282 10.312 0.373 15.863-0.837 19.492-1.016 3.051-2.318 5.887-4.942 5.988-3.3 0.127-11.42 0.283-14.785 0.158-1.003-0.037-4.689-0.613-5.912-1.143-1.694-0.736-1.876-1.08-1.836-1.221 0.522-1.822 3.985-5.338 8.439-6.923l0.408-0.146 0.078-0.427c0.272-1.502-0.112-3.376-0.129-3.454l-0.071-0.338-0.301-0.166c-0.12-0.065-12.555-6.539-14.946-16.343l-0.5 0.258z"/>
				<path d="m143.84 155.91c0.251 0.27 6.273 6.593 17.806 6.489 9.473-0.085 12.729-2.467 12.863-2.568l-0.904-1.196 5e-3 -4e-3c-0.03 0.021-3.1 2.099-11.978 2.269-11.044 0.212-16.96-6.365-17.018-6.427l-0.774 1.437z"/>
		<g fill="#fff">
			<path d="m19.412 142.3c-0.112-2.314 1.253-4.034 3.664-4.034 1.993 0 3.567 1.157 3.567 3.278 0 2.009-1.35 3.021-2.764 3.904-1.431 0.868-2.925 1.592-3.198 3.006h5.85v1.205h-7.44c0.225-2.699 1.591-3.664 3.197-4.66 1.929-1.189 2.909-1.896 2.909-3.471 0-1.237-0.996-2.057-2.202-2.057-1.59 0-2.266 1.462-2.217 2.829h-1.366z"/>
			<path d="m32.911 138.27c3.567 0 3.792 3.278 3.792 5.802 0 2.506-0.225 5.785-3.792 5.785-3.568 0-3.793-3.279-3.793-5.785 0-2.524 0.225-5.802 3.793-5.802zm0 10.381c2.33 0 2.346-2.893 2.346-4.597 0-1.688-0.016-4.58-2.346-4.58s-2.347 2.893-2.347 4.58c0 1.705 0.017 4.597 2.347 4.597z"/>
		</g>
		<g fill="#fff">
			<path d="m253.17 138.27c3.567 0 3.792 3.278 3.792 5.802 0 2.506-0.225 5.785-3.792 5.785-3.568 0-3.793-3.279-3.793-5.785 0-2.524 0.224-5.802 3.793-5.802zm0 10.381c2.33 0 2.346-2.893 2.346-4.597 0-1.688-0.016-4.58-2.346-4.58s-2.347 2.893-2.347 4.58c0 1.705 0.017 4.597 2.347 4.597z"/>
			<path d="m259.15 142.3c-0.112-2.314 1.253-4.034 3.664-4.034 1.993 0 3.567 1.157 3.567 3.278 0 2.009-1.35 3.021-2.764 3.904-1.431 0.868-2.925 1.592-3.198 3.006h5.85v1.205h-7.44c0.225-2.699 1.591-3.664 3.197-4.66 1.929-1.189 2.909-1.896 2.909-3.471 0-1.237-0.996-2.057-2.202-2.057-1.59 0-2.266 1.462-2.217 2.829h-1.366z"/>
		</g>
		<g fill="#fff">
			<path d="m20.716 108.94l0.449-1.459 10.966 3.378-0.449 1.459-10.966-3.378z"/>
			<path d="m24.628 97.646l0.667-1.48 10.967-1.683 0.014-0.029-8.483-3.825 0.595-1.318 10.461 4.717-0.688 1.524-10.859 1.679-0.013 0.029 8.395 3.786-0.595 1.319-10.461-4.719z"/>
			<path d="m33.532 79.951l2.153-3.296c1.934-2.96 4.495-3.648 7.59-1.626 3.215 2.101 4.108 4.7 2.017 7.902l-2.154 3.296-9.606-6.276zm9.364 4.295l1.39-2.126c0.571-0.874 1.867-3.387-1.671-5.699-2.287-1.495-4.228-1.552-5.766 0.802l-1.406 2.152 7.453 4.871z"/>
			<path d="m56.471 62.156c2.149 1.936 2.176 4.188 0.261 6.313-1.979 2.197-4.166 2.584-6.435 0.541l-5.445-4.905 1.021-1.134 5.445 4.905c1.505 1.355 3.103 1.238 4.458-0.267 1.291-1.433 1.177-2.963-0.328-4.318l-5.444-4.905 1.021-1.134 5.446 4.904z"/>
			<path d="m65.964 48.365c-1.178-1.154-2.471-1.007-3.688-7e-3 -0.993 0.816-1.691 1.993-0.742 3.147 0.897 1.093 2.446 0.091 4.139-0.759 1.682-0.84 3.505-1.506 4.934 0.232 1.551 1.887 0.322 4.165-1.292 5.491-1.986 1.632-4.459 2.041-6.234-0.12l1.118-0.918c1.224 1.49 2.996 1.116 4.337 0.014 1.068-0.877 1.973-2.182 0.922-3.461-1-1.217-2.589-0.265-4.26 0.587s-3.436 1.616-4.771-0.011c-1.479-1.801-0.53-3.912 1.084-5.238 1.813-1.489 3.896-1.765 5.571 0.124l-1.118 0.919z"/>
			<path d="m76.342 38.623l-3.267 1.991-0.669-1.098 7.836-4.775 0.669 1.098-3.266 1.99 5.302 8.701-1.304 0.794-5.301-8.701z"/>
			<path d="m88.574 30.477l4.966-2.121c1.98-0.846 3.668-0.291 4.388 1.395 0.543 1.271 0.43 2.56-0.69 3.458l0.013 0.03c1.328-0.288 1.964 0.507 2.51 1.497 0.53 0.997 0.963 2.175 1.863 2.646l-1.566 0.669c-0.582-0.258-0.846-1.491-1.495-2.438-0.59-0.971-1.213-1.736-2.573-1.155l-3.429 1.464 1.926 4.508-1.404 0.6-4.509-10.553zm6.407 3.013c1.315-0.562 2.293-1.381 1.637-2.918-0.441-1.035-1.331-1.563-2.646-1.001l-3.488 1.489 1.571 3.68 2.926-1.25z"/>
			<path d="m106.26 23.845l1.467-0.424 3.187 11.023-1.467 0.424-3.187-11.023z"/>
			<path d="m117.76 20.975l7.816-1.298 0.211 1.269-6.311 1.048 0.598 3.599 5.882-0.977 0.211 1.268-5.882 0.977 0.65 3.916 6.357-1.056 0.211 1.269-7.863 1.306-1.88-11.321z"/>
			<path d="m135.42 18.798l1.525-0.043 0.291 10.185 6.072-0.173 0.036 1.285-7.599 0.217-0.325-11.471z"/>
			<path d="m152.29 19l1.52 0.157-1.046 10.135 6.043 0.623-0.132 1.279-7.562-0.78 1.177-11.414z"/>
			<path d="m180.65 24.489l7.482 2.606-0.423 1.214-6.04-2.104-1.2 3.445 5.631 1.961-0.424 1.214-5.63-1.961-1.306 3.749 6.086 2.12-0.423 1.214-7.528-2.622 3.775-10.836z"/>
			<path d="m197.3 31.073l1.354 0.706-2.645 5.073 7.804-2.384 1.753 0.914-6.429 1.868 1.295 8.396-1.71-0.892-0.995-7.061-2.521 0.698-1.856 3.562-1.354-0.706 5.304-10.174z"/>
			<path d="m217.77 43.155c2.936 2.166 2.707 5.59 0.856 8.1s-5.055 3.741-7.991 1.576-2.707-5.59-0.856-8.1 5.055-3.741 7.991-1.576zm-6.372 8.641c2.251 1.66 4.626 0.416 5.999-1.447 1.374-1.863 1.86-4.499-0.391-6.159-2.25-1.66-4.625-0.416-5.999 1.447-1.372 1.863-1.859 4.499 0.391 6.159z"/>
			<path d="m229.61 53.304l1.139 1.156-2.392 10.834 0.022 0.023 6.631-6.528 1.015 1.031-8.177 8.05-1.173-1.191 2.357-10.732-0.022-0.023-6.562 6.46-1.015-1.031 8.177-8.049z"/>
			<path d="m245.98 71.808c2.119 2.97 0.837 6.154-1.701 7.965s-5.966 1.986-8.085-0.983c-2.118-2.97-0.837-6.155 1.701-7.965s5.966-1.987 8.085 0.983zm-8.739 6.234c1.624 2.276 4.268 1.831 6.151 0.487 1.884-1.344 3.165-3.699 1.541-5.976s-4.268-1.832-6.151-0.487c-1.884 1.345-3.165 3.7-1.541 5.976z"/>
			<path d="m254.21 85.284l0.909 1.881-7.107 7.453 10.263-0.928 0.909 1.881-10.331 4.995-0.629-1.302 8.594-4.155-0.014-0.029-10.154 0.929-0.566-1.172 7.034-7.382-0.015-0.029-8.594 4.155-0.63-1.302 10.331-4.995z"/>
			<path d="m262.84 105.53l0.473 1.452-10.909 3.556-0.474-1.452 10.91-3.556z"/>
		</g>
		<g fill="#fff">
			<path d="m81.051 235.43l1.267 0.852-5.684 8.455 5.041 3.389-0.718 1.066-6.308-4.24 6.402-9.522z"/>
			<path d="m142.59 257.15l-3.824-0.061 0.021-1.285 9.175 0.148-0.021 1.285-3.824-0.062-0.165 10.188-1.526-0.025 0.164-10.188z"/>
			<path d="m200.75 240.94l1.284-0.826 2.668 4.15 5.083-3.268-2.668-4.15 1.284-0.824 6.204 9.652-1.284 0.824-2.842-4.42-5.083 3.268 2.842 4.42-1.284 0.826-6.204-9.652z"/>
		</g>
</svg>
